<?xml version="1.0" encoding="UTF-8" standalone="no"?>
<svg
   xmlns:dc="http://purl.org/dc/elements/1.1/"
   xmlns:cc="http://creativecommons.org/ns#"
   xmlns:rdf="http://www.w3.org/1999/02/22-rdf-syntax-ns#"
   xmlns:svg="http://www.w3.org/2000/svg"
   xmlns="http://www.w3.org/2000/svg"
   xmlns:sodipodi="http://sodipodi.sourceforge.net/DTD/sodipodi-0.dtd"
   xmlns:inkscape="http://www.inkscape.org/namespaces/inkscape"
   version="1.1"
   id="svg2"
   xml:space="preserve"
   width="666.66669"
   height="503.35999"
   viewBox="0 0 666.66669 503.35999"
   sodipodi:docname="3937433.eps"><metadata
     id="metadata8"><rdf:RDF><cc:Work
         rdf:about=""><dc:format>image/svg+xml</dc:format><dc:type
           rdf:resource="http://purl.org/dc/dcmitype/StillImage" /></cc:Work></rdf:RDF></metadata><defs
     id="defs6"><clipPath
       clipPathUnits="userSpaceOnUse"
       id="clipPath302"><path
         d="m 2694.12,3539.68 h -146.57 v 12.62 c 15.9,9.62 34.55,15.16 54.49,15.16 h 92.08 v -27.78 m -149.07,0 h -14.31 c 4.43,4.08 9.22,7.78 14.31,11.06 v -11.06"
         id="path300" /></clipPath><clipPath
       clipPathUnits="userSpaceOnUse"
       id="clipPath318"><path
         d="m 2547.55,3539.68 h -2.5 v 11.06 c 0.82,0.53 1.66,1.05 2.5,1.56 v -12.62"
         id="path316" /></clipPath><clipPath
       clipPathUnits="userSpaceOnUse"
       id="clipPath374"><path
         d="m 3586.12,3539.68 h -36.19 v 75.43 c 0,12.01 -2.39,23.45 -6.73,33.89 h 36.19 c 4.33,-10.44 6.73,-21.88 6.73,-33.89 v -75.43"
         id="path372" /></clipPath></defs><sodipodi:namedview
     pagecolor="#ffffff"
     bordercolor="#666666"
     borderopacity="1"
     objecttolerance="10"
     gridtolerance="10"
     guidetolerance="10"
     inkscape:pageopacity="0"
     inkscape:pageshadow="2"
     inkscape:window-width="640"
     inkscape:window-height="480"
     id="namedview4" /><g
     id="g10"
     inkscape:groupmode="layer"
     inkscape:label="ink_ext_XXXXXX"
     transform="matrix(1.3333333,0,0,-1.3333333,0,503.36)"><g
       id="g12"
       transform="scale(0.1)"><path
         d="m 0,498.281 h 5000 v 2.5 H 0 Z"
         style="fill:#eeeeee;fill-opacity:1;fill-rule:nonzero;stroke:none"
         id="path14" /><path
         d="m 4167.79,339.82 h 331.22 v -2.5 h -331.22 v 2.5"
         style="fill:#eeeeee;fill-opacity:1;fill-rule:nonzero;stroke:none"
         id="path16" /><path
         d="m 3225.27,312.691 h 86.93 v -2.5 h -86.93 v 2.5"
         style="fill:#eeeeee;fill-opacity:1;fill-rule:nonzero;stroke:none"
         id="path18" /><path
         d="m 3965.86,432.68 h 191.92 v -2.5 h -191.92 v 2.5"
         style="fill:#eeeeee;fill-opacity:1;fill-rule:nonzero;stroke:none"
         id="path20" /><path
         d="m 524.59,415.879 h 431.933 v -2.5 H 524.59 v 2.5"
         style="fill:#eeeeee;fill-opacity:1;fill-rule:nonzero;stroke:none"
         id="path22" /><path
         d="m 1045.56,413.379 h 63.332 v 2.5 h -63.332 z"
         style="fill:#eeeeee;fill-opacity:1;fill-rule:nonzero;stroke:none"
         id="path24" /><path
         d="m 1314.71,371.16 h 936.758 v 2.5 H 1314.71 Z"
         style="fill:#eeeeee;fill-opacity:1;fill-rule:nonzero;stroke:none"
         id="path26" /><path
         d="m 439.152,3772.74 c -30.097,0 -54.582,-24.48 -54.582,-54.58 V 1003.85 c 0,-30.1 24.485,-54.58 54.582,-54.58 H 2370.14 c 30.09,0 54.57,24.48 54.57,54.58 v 2714.31 c 0,30.1 -24.48,54.58 -54.57,54.58 H 439.152 M 2370.14,946.77 H 439.152 c -31.476,0 -57.082,25.601 -57.082,57.08 v 2714.31 c 0,31.47 25.606,57.08 57.082,57.08 H 2370.14 c 31.46,0 57.07,-25.61 57.07,-57.08 V 1003.85 c 0,-31.479 -25.61,-57.08 -57.07,-57.08"
         style="fill:#eeeeee;fill-opacity:1;fill-rule:nonzero;stroke:none"
         id="path28" /><path
         d="m 2602.12,3772.74 c -30.09,0 -54.57,-24.48 -54.57,-54.58 V 1003.85 c 0,-30.1 24.48,-54.58 54.57,-54.58 H 4533.1 c 30.1,0 54.59,24.48 54.59,54.58 v 2714.31 c 0,30.1 -24.49,54.58 -54.59,54.58 H 2602.12 M 4533.1,946.77 H 2602.12 c -31.47,0 -57.07,25.601 -57.07,57.08 v 2714.31 c 0,31.47 25.6,57.08 57.07,57.08 H 4533.1 c 31.48,0 57.09,-25.61 57.09,-57.08 V 1003.85 c 0,-31.479 -25.61,-57.08 -57.09,-57.08"
         style="fill:#eeeeee;fill-opacity:1;fill-rule:nonzero;stroke:none"
         id="path30" /><path
         d="m 4296.69,3504.39 c -32.1,0 -58.13,26.03 -58.13,58.13 0,32.11 26.03,58.14 58.13,58.14 32.11,0 58.13,-26.03 58.13,-58.14 0,-32.1 -26.02,-58.13 -58.13,-58.13 z m 135.14,36.66 V 3584 l -22.11,2.08 c -2.99,14.39 -8.69,27.78 -16.49,39.66 l 14.2,17.16 -30.36,30.36 -17.16,-14.2 c -11.89,7.8 -25.27,13.51 -39.66,16.49 l -2.09,22.11 h -42.94 l -2.08,-22.11 c -14.4,-2.98 -27.78,-8.69 -39.67,-16.49 l -17.15,14.2 -30.37,-30.36 14.21,-17.16 c -7.8,-11.88 -13.51,-25.27 -16.49,-39.66 l -22.12,-2.08 v -42.95 l 22.11,-2.08 c 2.99,-14.4 8.7,-27.78 16.5,-39.67 l -14.21,-17.15 30.37,-30.36 17.15,14.2 c 11.89,-7.8 25.27,-13.51 39.67,-16.49 l 2.08,-22.11 h 42.94 l 2.09,22.11 c 14.39,2.98 27.77,8.69 39.66,16.49 l 17.16,-14.2 30.36,30.36 -14.2,17.15 c 7.8,11.89 13.5,25.27 16.49,39.67 l 22.11,2.08"
         style="fill:#e3e3e1;fill-opacity:1;fill-rule:nonzero;stroke:none"
         id="path32" /><path
         d="m 4499.98,3391.11 c -25.16,0 -45.55,20.4 -45.55,45.55 0,25.16 20.39,45.56 45.55,45.56 25.16,0 45.55,-20.4 45.55,-45.56 0,-25.15 -20.39,-45.55 -45.55,-45.55 z m 105.9,28.73 -0.01,33.65 -17.32,1.63 c -2.34,11.28 -6.81,21.77 -12.92,31.08 l 11.13,13.45 -23.8,23.79 -13.44,-11.13 c -9.32,6.12 -19.8,10.58 -31.08,12.92 l -1.64,17.33 h -33.65 l -1.63,-17.33 c -11.28,-2.34 -21.76,-6.8 -31.08,-12.92 l -13.44,11.13 -23.8,-23.79 11.13,-13.45 c -6.11,-9.31 -10.58,-19.8 -12.92,-31.08 l -17.33,-1.63 v -33.65 l 17.33,-1.63 c 2.34,-11.28 6.81,-21.77 12.92,-31.08 l -11.13,-13.45 23.8,-23.79 13.44,11.13 c 9.32,-6.11 19.8,-10.58 31.08,-12.92 l 1.63,-17.33 h 33.65 l 1.64,17.33 c 11.28,2.34 21.76,6.81 31.08,12.92 l 13.44,-11.13 23.8,23.79 -11.13,13.45 c 6.11,9.31 10.58,19.8 12.92,31.08 l 17.33,1.63"
         style="fill:#e3e3e1;fill-opacity:1;fill-rule:nonzero;stroke:none"
         id="path34" /><path
         d="m 4342.88,3300.18 c -21.13,0 -38.26,17.13 -38.26,38.26 0,21.13 17.13,38.26 38.26,38.26 21.14,0 38.27,-17.13 38.27,-38.26 0,-21.13 -17.13,-38.26 -38.27,-38.26 z m 88.95,24.13 v 28.26 l -14.55,1.37 c -1.97,9.48 -5.72,18.29 -10.86,26.11 l 9.35,11.29 -19.98,19.99 -11.3,-9.35 c -7.82,5.13 -16.63,8.89 -26.1,10.85 l -1.37,14.56 h -28.27 l -1.37,-14.56 c -9.47,-1.96 -18.28,-5.72 -26.1,-10.85 l -11.3,9.35 -19.98,-19.99 9.35,-11.29 c -5.14,-7.82 -8.89,-16.63 -10.86,-26.11 l -14.55,-1.37 v -28.26 l 14.55,-1.37 c 1.97,-9.48 5.72,-18.29 10.86,-26.11 l -9.35,-11.29 19.98,-19.99 11.3,9.35 c 7.82,-5.13 16.63,-8.89 26.1,-10.85 l 1.37,-14.55 h 28.27 l 1.37,14.55 c 9.47,1.96 18.28,5.72 26.1,10.85 l 11.3,-9.35 19.98,19.99 -9.35,11.29 c 5.14,7.82 8.89,16.63 10.86,26.11 l 14.55,1.37"
         style="fill:#e3e3e1;fill-opacity:1;fill-rule:nonzero;stroke:none"
         id="path36" /><path
         d="M 504.664,510.031 728.152,1994.97 V 510.031 h 60 V 2004.24 L 1011.87,510.031 h 64.28 l -280.009,1870.359 -7.989,-1.19 v 60.83 h -60 v -60.62 l -8.218,0.98 L 439.156,510.031 h 65.508"
         style="fill:#e3e3e1;fill-opacity:1;fill-rule:nonzero;stroke:none"
         id="path38" /><path
         d="M 1065.62,2172.95 H 447.441 l 50.032,516.56 h 518.117 l 50.03,-516.56"
         style="fill:#eeeeee;fill-opacity:1;fill-rule:nonzero;stroke:none"
         id="path40" /><g
         id="g42"
         transform="scale(10)"><text
           transform="matrix(1,0,0,-1,64.1133,354.076)"
           style="font-variant:normal;font-weight:normal;font-size:12px;font-family:Bebas;-inkscape-font-specification:Bebas;writing-mode:lr-tb;fill:#e3e3e1;fill-opacity:1;fill-rule:nonzero;stroke:none"
           id="text56"><tspan
             x="0 4.3974624 10.806156 15.110356 19.41407 23.811525 30.305668 36.799812 43.208511 47.605957 54.014645 58.412102 64.821274 69.218735 75.712868 82.207008 88.615692 93.013153 99.421837 103.81979 110.22847 114.62593 121.03461 125.43208 131.84125 136.23869 142.6474 147.04486 153.45357 157.85152 164.26022 168.65768 175.06639 179.46385 185.95801 192.45216 198.9463 205.44046 211.9346 218.42876 224.83794 229.14166 233.44537 237.7491 242.05281 246.35654 250.754 257.24814 263.65735 268.05481 274.46347 278.767 283.07071 287.37445 291.77191 298.18109 302.57855 308.98727"
             y="0"
             sodipodi:role="line"
             id="tspan44">1011100010101000101010101010101010000000111111001011110101</tspan><tspan
             x="78.448997 82.846458 89.255142 93.559341 97.863045 102.2605 108.75464 115.24878 121.65746 126.05491 132.46359 136.86105 143.27023 147.66771 154.16185 160.65601 167.06471 171.46216 177.87085 182.26881 188.67751 193.07498 199.48367 203.88115 210.29033 214.68781 221.18196 227.6761 234.08481 238.38852 242.69225 246.99596 251.29968 255.69763 262.10632 266.50381 272.91251 277.30997 283.71915 288.11664 294.61078 301.10492 307.59909 314.00778 318.31149 322.6152 327.0127 333.42188 337.81934 344.22803 348.62549 355.11899 361.61313 368.10724 374.60138"
             y="240.89"
             sodipodi:role="line"
             id="tspan46">1011100010101000101010101000111110101010000111010100000</tspan><tspan
             x="21.337 27.745693 32.143154 38.552334 42.949787 49.358475 53.755932 60.250069 66.744194 73.152885 77.550827 83.959518 88.356972 94.765656 99.163116 105.57229 109.96975 116.46388 122.95802 129.45216 135.94629 142.44041 148.93457 155.34328 159.64699 163.95071 168.25443 172.55815 176.86235 181.25983 187.75397 194.16267 198.56013 204.96884 209.27255 213.57628 217.88048 222.27795 228.68665 233.08412 239.49283"
             y="37.033001"
             sodipodi:role="line"
             id="tspan48">01010100010101010000000111111001011110101</tspan><tspan
             x="99.127197 105.53589 109.93334 116.34252 120.73997 127.14867 131.54613 138.04025 144.53441 150.9431 155.34106 161.74977 166.14723 172.55594 176.9534 183.36259 187.76006 194.25418 200.74834 207.24248 213.73663 220.23077 226.72493 233.13364 237.43735 241.74107 246.04478 250.34851 254.65271 259.05017 265.54434 271.95303 276.35049 282.75919 287.06293 291.36664 295.67084 300.0683 306.47702 310.87448 317.28317"
             y="283.09201"
             sodipodi:role="line"
             id="tspan50">01010100010101010000000111111001011110101</tspan><tspan
             x="163.19521 169.6039 174.00137 180.41055 184.80803 191.21672 195.6142 202.10834 208.60249 215.0112 219.40915 225.81786 230.21532 236.62402 241.02148 247.43068 251.82814 258.32227 264.81641 271.31058 277.80472 284.29886 290.79303 297.20172 301.50543 305.80914 310.11288 314.4166 318.72079 323.11826 329.61243 336.02112 340.41858 346.8273 351.13098 355.43469 359.73889 364.13638 370.54504 374.9425 381.3512"
             y="260.75919"
             sodipodi:role="line"
             id="tspan52">01010100010101010000000111111001011110101</tspan><tspan
             x="21.3372 27.745893 32.143356 38.552532 42.949989 49.358677 53.756134 60.250271 66.744392 73.153084 77.551025 83.959717 88.35717 94.765862 99.163315 105.57249 109.96995 116.37863 120.77609 127.18478 131.58223 137.99141 142.38885 148.79756 153.19502 159.60373 164.00119 170.49535 176.98949 183.48364 189.9778 196.47194 202.96609 209.37527 213.679 217.98271 222.28644 226.59015 230.89388 235.29134 241.78549 248.19467 252.59215 259.00085 263.30457 267.60828 271.91248 276.30997 282.71866 287.11609 293.52481"
             y="55.599201"
             sodipodi:role="line"
             id="tspan54">010101000101010101010101010000000111111001011110101</tspan></text></g><path
         d="M 4438.89,162.391 C 4438.89,99.8516 3570.82,49.1484 2500,49.1484 c -1070.82,0 -1938.891,50.7032 -1938.891,113.2426 0,62.527 868.071,113.23 1938.891,113.23 1070.82,0 1938.89,-50.703 1938.89,-113.23"
         style="fill:#f8f8f9;fill-opacity:1;fill-rule:nonzero;stroke:none"
         id="path58" /><path
         d="M 4440,3398.66 V 1386.17 c 0,-48.2 -42.2,-91.4 -90.3,-91.4 H 1453.9 c -48.1,0 -83.9,43.2 -83.9,91.4 v 2012.49 c 0,48.11 35.8,86.11 83.9,86.11 h 2895.8 c 48.1,0 90.3,-38 90.3,-86.11"
         style="fill:#4870c0;fill-opacity:1;fill-rule:nonzero;stroke:none"
         id="path60" /><path
         d="m 4349.7,1294.77 h -19.16 v 180.72 h -852.48 v -180.72 h -930.51 -2.5 -117.84 -2.5 -766.21 c -9.36,70.35 -26.58,131.18 -59.19,157.39 v 0 c -22.48,18.77 -67.88,35.47 -125.9,47.02 29.85,10.2 56.51,31.95 71.99,63.49 4.7,9.7 9.1,20.4 13,31.8 l 0.1,0.3 v 0 c 25.8,75.3 29.8,180.7 -37.3,227.3 -21.26,14.89 -45.62,22.04 -69.74,22.04 -28.26,0 -56.19,-9.81 -78.42,-28.5 -1.03,0.65 -2.04,1.29 -3.04,1.92 v 254.34 c 4.45,8.54 9,16.95 13.66,25.25 h 488.64 v 381.83 c 70.19,20.09 145.01,32.81 223.82,38.27 v -617.99 c 0,-48.29 39.14,-87.43 87.43,-87.43 h 672.47 c 39.82,0 73.42,26.61 83.98,63.02 v -11.97 c 0,-44.64 36.19,-80.82 80.82,-80.82 h 621.66 c 44.64,0 80.82,36.18 80.82,80.82 v 88.04 h 29.83 c 37.4,0 67.72,30.32 67.72,67.72 v 231.24 c 392.17,111.53 580.45,484.92 619.15,898.02 v -1761.7 c 0,-48.2 -42.2,-91.4 -90.3,-91.4 m -2169.34,330.36 c -27.81,0 -50.36,-22.55 -50.36,-50.36 0,-27.81 22.55,-50.36 50.36,-50.36 h 1468.85 c 27.81,0 50.36,22.55 50.36,50.36 0,27.81 -22.55,50.36 -50.36,50.36 H 2180.36"
         style="fill:#537bc6;fill-opacity:1;fill-rule:nonzero;stroke:none"
         id="path62" /><path
         d="M 3649.21,1524.41 H 2180.36 c -27.81,0 -50.36,22.55 -50.36,50.36 0,27.81 22.55,50.36 50.36,50.36 h 1468.85 c 27.81,0 50.36,-22.55 50.36,-50.36 0,-27.81 -22.55,-50.36 -50.36,-50.36 M 2140,1574.77 v 0 c 0,-22.26 18.1,-40 40.36,-40 h 868.47 c 22.25,0 40.36,17.74 40.36,40 v 0 0 c 0,22.25 -18.11,40 -40.36,40 h -868.47 c -22.26,0 -40.36,-17.75 -40.36,-40 v 0"
         style="fill:#4067ba;fill-opacity:1;fill-rule:nonzero;stroke:none"
         id="path64" /><path
         d="m 2180.36,1534.77 c -22.26,0 -40.36,17.74 -40.36,40 0,22.25 18.1,40 40.36,40 h 868.47 c 22.25,0 40.36,-17.75 40.36,-40 0,-22.26 -18.11,-40 -40.36,-40 h -868.47"
         style="fill:#4870c0;fill-opacity:1;fill-rule:nonzero;stroke:none"
         id="path66" /><path
         d="m 3048.83,1534.77 h -868.47 c -22.26,0 -40.36,17.74 -40.36,40 0,22.25 18.1,40 40.36,40 h 868.47 c 22.25,0 40.36,-17.75 40.36,-40 0,-22.26 -18.11,-40 -40.36,-40"
         style="fill:#c7d9f2;fill-opacity:1;fill-rule:nonzero;stroke:none"
         id="path68" /><path
         d="m 1599.31,1452.16 c 93.19,-74.89 60.69,-432.39 78.19,-487.39 17.5,-55 92.5,-100.18 92.5,-100.18 L 1665.36,742.102 c 0,0 -87.49,15.168 -153.93,157.668 -66.43,142.5 87.88,552.39 87.88,552.39"
         style="fill:#1d2a30;fill-opacity:1;fill-rule:nonzero;stroke:none"
         id="path70" /><path
         d="m 1670.88,759.391 c -12.37,9.218 -24.43,15.379 -30.88,15.379 -5.33,0 -16.79,-1.649 -30.97,-4.129 -29.39,22.14 -65.69,60.949 -97.29,128.461 -4.98,168.638 30.34,361.128 87.57,553.058 v 0 0 c 93.19,-74.89 60.69,-432.39 78.19,-487.39 7,-22 23.19,-42.418 40.1,-59.008 l -46.72,-146.371"
         style="fill:#182124;fill-opacity:1;fill-rule:nonzero;stroke:none"
         id="path72" /><path
         d="m 1500.31,667.219 c 0,0 669.7,186.902 753.82,-48.141 84.13,-235.039 -523.88,-422.406 -860.4,-433.879 -336.51,-11.48 -473.792,224.492 -374.56,448.75 l 481.14,33.27"
         style="fill:#4870c0;fill-opacity:1;fill-rule:nonzero;stroke:none"
         id="path74" /><path
         d="m 1370.37,184.789 c -249.6,0 -382.694,140.481 -382.78,306.371 -0.004,4.141 0.078,8.309 0.242,12.481 l 51.428,8.8 c -9.38,-60.179 7.92,-126.871 44.8,-176.203 84.17,-112.57 239.58,-139.976 239.58,-139.976 v 0 0 c 0,0 -105.81,149.539 -90.51,191.609 1.97,5.438 4.68,7.809 7.88,7.809 21.53,0 65.73,-107.239 65.73,-107.239 0,0 62.47,-8.179 158.55,-19.73 l -4.44,-3.262 37.18,-64.828 57.75,31.59 17.63,9.641 9.44,-14.543 38.98,8.66 -8.08,15.422 c 39.3,-4.442 80.78,-9 123.45,-13.532 -121.63,-30.64 -244.32,-49.281 -343.47,-52.66 -7.88,-0.269 -15.69,-0.41 -23.36,-0.41 m 629.36,147.109 c -34.82,19.993 -98.48,55.954 -175.83,96.973 1.77,0.731 261.71,108.359 317.65,205.899 h 29.38 c 11.98,0 23.61,8.839 27.61,20 9.41,0.089 19.13,4.421 26.59,11.101 12.73,-13.32 22.57,-28.812 29,-46.793 5.34,-14.918 7.89,-29.637 7.9,-44.148 0.02,-25.461 -7.81,-50.25 -22.14,-74.149 -0.5,-0.84 -1.01,-1.66 -1.52,-2.5 -27.95,-45.082 -78.99,-87.011 -144.1,-124.621 -1.45,-0.84 -2.89,-1.672 -4.36,-2.5 -21.56,-12.281 -44.63,-24.09 -68.87,-35.379 l -16.45,11.059 -4.86,-14.942"
         style="fill:#395eb4;fill-opacity:1;fill-rule:nonzero;stroke:none"
         id="path76" /><path
         d="m 2159.57,293.02 c 10.48,4.609 18.98,12.8 23.98,23.109 0.58,2.812 -0.54,5.711 -2.86,7.402 -0.63,0.789 -1.68,1.098 -2.64,0.778 -0.95,-0.329 -1.84,-0.84 -2.59,-1.508 -7.06,-8.891 -12.44,-18.973 -15.89,-29.781 z m -2.89,-6.2 -2.47,0.121 -0.59,2.079 c 1.1,3.75 12.24,36.109 23.52,39.5 2.42,0.589 4.98,-0.161 6.71,-1.961 3.19,-2.637 4.72,-6.778 4,-10.86 -1.82,-6.051 -5.52,-11.371 -10.55,-15.199 -6.39,-5.25 -13.3,-9.832 -20.62,-13.68"
         style="fill:#4870c0;fill-opacity:1;fill-rule:nonzero;stroke:none"
         id="path78" /><path
         d="m 2147.25,324.84 c -1.4,-1.231 -2.35,-2.879 -2.7,-4.711 -1.61,-8.367 6.19,-20.938 10.4,-26.949 2.57,11.199 1.74,29.609 -3.03,32.922 -0.52,0.269 -1.49,1.039 -3.9,-0.653 z m 8.83,-38.449 -2.1,0.621 c -1.05,0.898 -16.58,20.508 -14.02,33.75 0.62,3.308 2.55,6.238 5.36,8.109 2.43,2.34 6.15,2.688 8.97,0.84 8.13,-5.731 7.14,-31.973 3.15,-41.922 l -0.29,-0.988 -1.07,-0.41"
         style="fill:#4870c0;fill-opacity:1;fill-rule:nonzero;stroke:none"
         id="path80" /><path
         d="m 1476.44,161.43 c -4.04,-10.719 -4.14,-22.52 -0.27,-33.301 1.6,-2.379 4.45,-3.609 7.29,-3.141 1,-0.097 1.96,0.442 2.4,1.34 0.44,0.922 0.69,1.902 0.74,2.922 -1.42,11.25 -4.86,22.148 -10.16,32.18 z m -2.41,6.41 1.82,1.68 1.9,-1.04 c 1.9,-3.41 17.22,-34.011 11.76,-44.441 -1.27,-2.148 -3.6,-3.449 -6.1,-3.418 -4.12,-0.441 -8.15,1.367 -10.55,4.738 -3.05,5.532 -4.27,11.903 -3.48,18.172 0.72,8.239 2.28,16.379 4.65,24.309"
         style="fill:#4870c0;fill-opacity:1;fill-rule:nonzero;stroke:none"
         id="path82" /><path
         d="m 1636.28,394.07 -118.51,-86.89 -56.92,-41.731 37.18,-64.828 57.75,31.59 141.09,77.148 -60.59,84.711"
         style="fill:#f9a95e;fill-opacity:1;fill-rule:nonzero;stroke:none"
         id="path84" /><path
         d="m 1516.38,202.52 -35.75,78.91 c -2,4.398 -7.23,6.281 -11.57,4.148 l -38.55,-18.879 c 0,0 -53.67,-21.699 -60.42,-39.14 C 1350.4,176.602 1425.01,0.03125 1448.3,0 c 8.52,-0.0195313 13.58,13.1914 14.77,21.6094 3.77,26.7422 4.41,93.9686 7.83,116.2426 4,26.027 30.32,46.058 42.47,54.039 3.5,2.3 4.74,6.808 3.01,10.629"
         style="fill:#1d2a30;fill-opacity:1;fill-rule:nonzero;stroke:none"
         id="path86" /><path
         d="m 1507.79,147.969 c 0.11,1.859 -0.41,3.703 -1.48,5.222 -4.85,7.008 -19.28,10.227 -26.53,11.43 6.21,-9.672 19.94,-21.961 25.64,-20.871 0.56,0.18 1.79,0.34 2.26,3.238 z m -33.64,20.59 1.9,1.07 c 1.38,0.121 26.26,-2.5 33.93,-13.59 1.93,-2.769 2.67,-6.199 2.04,-9.508 -0.03,-3.371 -2.38,-6.281 -5.68,-7 -9.77,-1.801 -27.83,17.27 -32.15,27.078 l -0.51,0.903 0.47,1.047"
         style="fill:#4870c0;fill-opacity:1;fill-rule:nonzero;stroke:none"
         id="path88" /><path
         d="m 1555.78,232.211 -13.91,27.43 c 7.12,-0.832 14.3,-1.661 21.62,-2.512 l 9.92,-15.277 -17.63,-9.641"
         style="fill:#ca884a;fill-opacity:1;fill-rule:nonzero;stroke:none"
         id="path90" /><path
         d="m 1582.85,227.309 38.98,8.66 -64.78,123.609 -36.12,-36.879 61.92,-95.39"
         style="fill:#4870c0;fill-opacity:1;fill-rule:nonzero;stroke:none"
         id="path92" /><path
         d="m 1582.85,227.309 -9.44,14.543 -9.92,15.277 c 16.28,-1.879 33.06,-3.801 50.26,-5.738 l 8.08,-15.422 -38.98,-8.66"
         style="fill:#b4caec;fill-opacity:1;fill-rule:nonzero;stroke:none"
         id="path94" /><path
         d="m 1881.52,244.43 145.01,-23.86 69.63,-11.468 20.31,71.929 -62.98,19.149 -153.84,46.808 -18.13,-102.558"
         style="fill:#f9a95e;fill-opacity:1;fill-rule:nonzero;stroke:none"
         id="path96" /><path
         d="m 2102.27,292.809 -31.36,-80.758 c -1.75,-4.5 0.57,-9.563 5.13,-11.172 l 40.46,-14.328 c 0,0 53.06,-23.16 70.24,-15.781 50.19,21.589 124.12,198.441 107.85,215.101 -5.95,6.098 -18.93,0.469 -25.77,-4.57 -21.75,-16.012 -70.23,-62.602 -88.53,-75.731 -21.4,-15.359 -54.12,-10.582 -68.32,-7.48 -4.1,0.89 -8.18,-1.371 -9.7,-5.281"
         style="fill:#1d2a30;fill-opacity:1;fill-rule:nonzero;stroke:none"
         id="path98" /><path
         d="m 2026.53,220.57 v 0 l -11.56,1.899 18.95,83.672 19.57,-5.961 -26.96,-79.61"
         style="fill:#ca884a;fill-opacity:1;fill-rule:nonzero;stroke:none"
         id="path100" /><path
         d="m 2028.52,315.211 c 0,0 -602.8,355.551 -806.79,346.09 -204,-9.461 -221.835,-212.5 -137.67,-325.063 84.17,-112.57 239.58,-139.976 239.58,-139.976 0,0 -105.81,149.539 -90.51,191.609 15.29,42.059 73.61,-99.43 73.61,-99.43 0,0 373.48,-48.91 698.83,-76.48 l 22.95,103.25"
         style="fill:#4870c0;fill-opacity:1;fill-rule:nonzero;stroke:none"
         id="path102" /><path
         d="m 2038.05,324.352 -33.46,22.488 -42.99,-132.07 h 51.62 l 24.83,109.582"
         style="fill:#4870c0;fill-opacity:1;fill-rule:nonzero;stroke:none"
         id="path104" /><path
         d="m 2013.22,214.77 h -51.62 l 42.99,132.07 33.46,-22.488 -4.13,-18.211 -18.95,-83.672 -1.75,-7.699"
         style="fill:#b4caec;fill-opacity:1;fill-rule:nonzero;stroke:none"
         id="path106" /><path
         d="m 1578.86,604.77 c -109.03,210 -74.34,529.47 20.45,847.39 -65.98,55.11 -329.34,92.33 -530.41,33.89 0,0 -127.423,-472.13 -112.377,-987.769 L 1578.86,604.77"
         style="fill:#1d2a30;fill-opacity:1;fill-rule:nonzero;stroke:none"
         id="path108" /><path
         d="m 1347.3,1400.57 c -87.7,0 -144.8,92 -144.8,92 115,40.3 115.4,161.7 115.4,161.7 l 44.3,-43.3 63.1,-61.8 c -52.5,-37.2 -27.7,-69.4 -11,-83.7 6,-5.3 11,-8.2 11,-8.2 0,0 9.7,-56.7 -78,-56.7"
         style="fill:#f9a95e;fill-opacity:1;fill-rule:nonzero;stroke:none"
         id="path110" /><path
         d="m 1403.06,1464.82 c -95.51,0 -89.11,148.6 -89.06,149.64 0.88,-0.29 1.75,-0.54 2.62,-0.73 1.45,-23.57 7.51,-45.02 21.18,-67.06 v 0 l 0.6,-0.8 c 14.39,-22.77 33.87,-37.89 55.33,-46.03 1.31,-15 12.01,-27.04 20.57,-34.37 -3.9,-0.44 -7.64,-0.65 -11.24,-0.65"
         style="fill:#ca884a;fill-opacity:1;fill-rule:nonzero;stroke:none"
         id="path112" /><path
         d="m 1498.35,1775.11 c -40.77,-16.88 -32.97,-61.36 34.64,-142.4 41.63,35.84 64.16,117.43 42.34,143.62 -21.82,26.2 -41.48,13.34 -76.98,-1.22"
         style="fill:#1d2a30;fill-opacity:1;fill-rule:nonzero;stroke:none"
         id="path114" /><path
         d="m 1558.5,1594.77 -0.1,-0.3 c -3.9,-11.4 -8.3,-22.1 -13,-31.8 -40.2,-81.9 -155.8,-97.8 -207,-16.8 l -0.6,0.8 c -33.8,54.5 -21.1,105.4 -7,193.6 2.8,18.7 9.9,36.4 20.8,51.9 38.6,55.1 114.5,68.5 169.6,29.9 67.1,-46.6 63.1,-152 37.3,-227.3"
         style="fill:#f9a95e;fill-opacity:1;fill-rule:nonzero;stroke:none"
         id="path116" /><path
         d="m 1455.36,1687.26 c -1.58,-7.08 0.92,-13.67 5.54,-14.68 4.62,-1.01 9.58,3.82 11.16,10.9 1.59,7.08 -0.81,13.62 -5.39,14.73 -4.59,1.1 -9.26,-4.09 -11.31,-10.95"
         style="fill:#1d2a30;fill-opacity:1;fill-rule:nonzero;stroke:none"
         id="path118" /><path
         d="m 1535.82,1669.1 c -1.59,-7.08 0.91,-13.67 5.53,-14.68 4.63,-1.01 9.68,3.78 11.31,10.95 1.62,7.17 -0.92,13.67 -5.54,14.68 -4.63,1.01 -9.72,-3.87 -11.3,-10.95"
         style="fill:#1d2a30;fill-opacity:1;fill-rule:nonzero;stroke:none"
         id="path120" /><path
         d="m 1508.81,1671.65 c 3.59,-23.53 10.41,-46.46 20.27,-68.14 -15.41,-8.82 -35.29,1.3 -35.29,1.3 l 15.02,66.84"
         style="fill:#ec782f;fill-opacity:1;fill-rule:nonzero;stroke:none"
         id="path122" /><path
         d="m 1439.07,1717.56 c -0.94,0.1 -1.83,0.51 -2.51,1.17 -1.53,1.79 -1.35,4.47 0.41,6.03 10.26,9.16 24.34,12.74 37.72,9.58 2.2,-0.57 3.52,-2.81 2.96,-5.01 l -0.09,-0.28 c -0.74,-2.2 -3.05,-3.45 -5.29,-2.87 -10.58,2.32 -21.64,-0.61 -29.68,-7.87 -1.01,-0.73 -2.29,-1.01 -3.52,-0.75"
         style="fill:#1d2a30;fill-opacity:1;fill-rule:nonzero;stroke:none"
         id="path124" /><path
         d="m 1578.54,1688.01 c -1.6,0.38 -2.86,1.62 -3.26,3.22 -2.18,10.62 -9.31,19.57 -19.19,24.06 -2.2,0.82 -3.34,3.26 -2.55,5.48 0.81,2.18 3.19,3.32 5.39,2.6 12.6,-5.5 21.77,-16.75 24.61,-30.2 0.55,-2.26 -0.84,-4.54 -3.1,-5.09 l -0.06,-0.01 -1.84,-0.06"
         style="fill:#1d2a30;fill-opacity:1;fill-rule:nonzero;stroke:none"
         id="path126" /><path
         d="m 1382.76,1809.55 c 37.54,-23.06 22.72,-65.78 -56.89,-134.95 -35.43,42.01 -44.73,126.24 -18.92,148.47 25.81,22.22 43,6.56 75.81,-13.52"
         style="fill:#1d2a30;fill-opacity:1;fill-rule:nonzero;stroke:none"
         id="path128" /><path
         d="m 1273.79,1679.95 c 1.33,-22.44 11.5,-43.45 28.29,-58.4 22.41,-19.56 46.35,-2.58 50.86,25.22 4.03,25.07 -2.82,65.49 -30.42,74.33 -27.61,8.83 -50.24,-13.62 -48.73,-41.15"
         style="fill:#f9a95e;fill-opacity:1;fill-rule:nonzero;stroke:none"
         id="path130" /><path
         d="m 1422.59,1603.08 c 0.08,-0.26 2.52,-8.57 10.51,-17.85 7.97,-9.29 21.58,-19.49 43.51,-23.27 1.52,-0.26 2.96,0.76 3.22,2.27 0.26,1.52 -0.75,2.96 -2.27,3.22 -20.65,3.59 -32.95,12.96 -40.24,21.41 -3.64,4.23 -6,8.23 -7.45,11.15 -0.72,1.46 -1.21,2.65 -1.52,3.46 l -0.33,0.91 -0.08,0.25 c -0.43,1.48 -1.98,2.33 -3.45,1.9 -1.48,-0.43 -2.33,-1.98 -1.9,-3.45"
         style="fill:#1d2a30;fill-opacity:1;fill-rule:nonzero;stroke:none"
         id="path132" /><path
         d="m 1501.87,1671.06 h -2.79 c -0.02,-15.2 -12.32,-27.49 -27.52,-27.52 -15.2,0.03 -27.5,12.32 -27.52,27.52 0.02,15.2 12.32,27.5 27.52,27.53 15.2,-0.03 27.5,-12.33 27.52,-27.53 h 2.79 2.79 c -0.01,18.28 -14.82,33.1 -33.1,33.1 -18.28,0 -33.09,-14.82 -33.1,-33.1 0.01,-18.27 14.82,-33.09 33.1,-33.09 18.28,0 33.09,14.82 33.1,33.09 h -2.79"
         style="fill:#1d2a30;fill-opacity:1;fill-rule:nonzero;stroke:none"
         id="path134" /><path
         d="m 1583.6,1654.29 h -2.79 c -0.02,-15.2 -12.32,-27.5 -27.52,-27.53 -15.2,0.03 -27.5,12.33 -27.52,27.53 0.02,15.2 12.32,27.49 27.52,27.52 15.2,-0.03 27.5,-12.32 27.52,-27.52 h 2.79 2.79 c -0.01,18.28 -14.82,33.09 -33.1,33.09 -18.28,0 -33.09,-14.81 -33.1,-33.09 0.01,-18.28 14.82,-33.1 33.1,-33.1 18.28,0 33.09,14.82 33.1,33.1 h -2.79"
         style="fill:#1d2a30;fill-opacity:1;fill-rule:nonzero;stroke:none"
         id="path136" /><path
         d="m 1503.09,1660.39 0.1,0.04 c 0.59,0.28 3.78,1.58 7.24,1.56 3.63,-0.09 7.23,-1.08 10.12,-6.09 0.75,-1.34 2.45,-1.82 3.8,-1.06 1.34,0.75 1.81,2.45 1.06,3.79 -3.79,6.89 -10.09,9.02 -14.98,8.93 -5.44,-0.02 -9.57,-2.08 -9.78,-2.16 -1.39,-0.68 -1.96,-2.35 -1.29,-3.73 0.68,-1.38 2.35,-1.96 3.73,-1.28"
         style="fill:#1d2a30;fill-opacity:1;fill-rule:nonzero;stroke:none"
         id="path138" /><path
         d="m 1442.97,1679.83 c -0.01,0 -21.74,9.15 -45.52,18.76 -11.89,4.8 -24.29,9.72 -34.75,13.67 -10.5,3.96 -18.92,6.93 -23.34,7.93 -1.5,0.33 -2.99,-0.61 -3.33,-2.11 -0.33,-1.51 0.61,-3 2.11,-3.33 3.69,-0.82 12.22,-3.78 22.59,-7.7 15.59,-5.89 35.63,-13.98 51.75,-20.6 16.12,-6.62 28.3,-11.74 28.33,-11.76 1.41,-0.59 3.05,0.07 3.65,1.49 0.59,1.42 -0.07,3.05 -1.49,3.65"
         style="fill:#1d2a30;fill-opacity:1;fill-rule:nonzero;stroke:none"
         id="path140" /><path
         d="m 1306.12,1821.89 c 0,0 -9.01,70.62 63.06,82.29 72.07,11.66 166.45,-6.37 195.61,6.13 0,0 -3.9,-22.36 -20.65,-30.69 0,0 54.97,-20.27 98.31,-2.77 0,0 -18.83,-52.08 -43.14,-72.08 H 1620 c 0,0 -41.02,-39.17 -90.92,-40 -49.91,-0.84 -96.89,67.9 -146.32,44.78 -49.43,-23.12 -76.64,12.34 -76.64,12.34"
         style="fill:#1d2a30;fill-opacity:1;fill-rule:nonzero;stroke:none"
         id="path142" /><path
         d="m 1433.97,1492.57 c -13.68,0 -27.32,2.37 -40.24,7.27 -21.46,8.14 -40.94,23.26 -55.33,46.03 l -0.6,0.8 v 0 c -13.21,23.46 -14.53,48 -12.55,66.67 13.61,1.85 24.76,15.35 27.69,33.43 2.24,13.91 1.13,32.54 -5.02,47.88 3.95,3.79 7.68,7.48 11.18,11.09 0.07,-1.31 2.7,-50.86 10.5,-64.97 7.9,-14.3 52.9,-18.5 62.1,-21 9.1,-2.5 31,-28.5 41.8,-35.5 10.7,-7 50.4,-1.2 55.1,-7 0.52,-0.65 1.29,-0.93 2.25,-0.93 7.72,0 27.65,18.43 27.65,18.43 l -0.1,-0.3 c -3.9,-11.4 -8.3,-22.1 -13,-31.8 -22.1,-45.02 -66.98,-70.1 -111.43,-70.1 m -8.7,114.07 c -0.26,0 -0.52,-0.03 -0.78,-0.11 -1.48,-0.43 -2.33,-1.98 -1.9,-3.45 0.08,-0.26 2.52,-8.57 10.51,-17.85 7.97,-9.29 21.58,-19.49 43.51,-23.27 0.16,-0.03 0.32,-0.04 0.48,-0.04 1.33,0 2.51,0.96 2.74,2.31 0.26,1.52 -0.75,2.96 -2.27,3.22 -20.65,3.59 -32.95,12.96 -40.24,21.41 -3.64,4.23 -6,8.23 -7.45,11.15 -0.72,1.46 -1.21,2.65 -1.52,3.46 l -0.33,0.91 -0.08,0.25 c -0.35,1.22 -1.47,2.01 -2.67,2.01"
         style="fill:#946239;fill-opacity:1;fill-rule:nonzero;stroke:none"
         id="path144" /><path
         d="m 1347.92,1694.65 c 0,0.01 -0.01,0.02 -0.01,0.03 l 11.19,11.09 c 0,0 0,-0.01 0,-0.03 -3.5,-3.61 -7.23,-7.3 -11.18,-11.09"
         style="fill:#15191b;fill-opacity:1;fill-rule:nonzero;stroke:none"
         id="path146" /><path
         d="m 1325.25,1613.34 c 1.98,18.64 7.25,31.43 7.25,31.43 l 15.4,49.9 0.01,0.01 c 0,-0.01 0.01,-0.02 0.01,-0.03 6.15,-15.34 7.26,-33.97 5.02,-47.88 -2.93,-18.08 -14.08,-31.58 -27.69,-33.43"
         style="fill:#946239;fill-opacity:1;fill-rule:nonzero;stroke:none"
         id="path148" /><path
         d="m 1477.09,1561.92 c -0.16,0 -0.32,0.01 -0.48,0.04 -21.93,3.78 -35.54,13.98 -43.51,23.27 -7.99,9.28 -10.43,17.59 -10.51,17.85 -0.43,1.47 0.42,3.02 1.9,3.45 0.26,0.08 0.52,0.11 0.78,0.11 1.2,0 2.32,-0.79 2.67,-2.01 l 0.08,-0.25 0.33,-0.91 c 0.31,-0.81 0.8,-2 1.52,-3.46 1.45,-2.92 3.81,-6.92 7.45,-11.15 7.29,-8.45 19.59,-17.82 40.24,-21.41 1.52,-0.26 2.53,-1.7 2.27,-3.22 -0.23,-1.35 -1.41,-2.31 -2.74,-2.31"
         style="fill:#15191b;fill-opacity:1;fill-rule:nonzero;stroke:none"
         id="path150" /><path
         d="m 1823.9,428.871 c -99.64,52.859 -222.07,114.16 -334.76,160.539 l 89.72,15.36 c -5.07,9.761 -9.83,19.769 -14.29,30 h 102.56 v 0 h 474.42 C 2085.61,537.23 1825.67,429.602 1823.9,428.871"
         style="fill:#254ca5;fill-opacity:1;fill-rule:nonzero;stroke:none"
         id="path152" /><path
         d="m 1823.89,428.871 c -258.95,126.57 -475.41,130.988 -504.35,130.988 -2.17,0 -3.29,-0.031 -3.29,-0.031 v 0 l 172.89,29.582 c 112.69,-46.379 235.12,-107.68 334.76,-160.539 h -0.01"
         style="fill:#395eb4;fill-opacity:1;fill-rule:nonzero;stroke:none"
         id="path154" /><path
         d="m 1316.25,559.828 -154.76,171.613 31.01,-6.671 7.8,17.902 c 69.13,-16.332 172.34,-40.902 240.41,-57.902 H 1340 v -21.801 0 c 0,-14.699 12.23,-28.199 27.03,-28.199 h 197.54 c 4.46,-10.231 9.22,-20.239 14.29,-30 l -89.72,-15.36 -172.89,-29.582"
         style="fill:#182124;fill-opacity:1;fill-rule:nonzero;stroke:none"
         id="path156" /><path
         d="M 1167.5,857.27 1500,748.52 c 0,0 118.75,26.25 140,26.25 21.25,0 103.28,-66.719 56.87,-90 -46.42,-23.29 -173.12,-26.25 -186.87,-18.75 -13.75,7.5 -382.5,93.789 -382.5,93.789 l 40,97.461"
         style="fill:#f9a95e;fill-opacity:1;fill-rule:nonzero;stroke:none"
         id="path158" /><path
         d="m 1068.9,1486.05 c 75.24,14.6 -55.29,-443.78 -23.34,-511.28 31.94,-67.5 156.94,-110.18 156.94,-110.18 L 1145,737.672 c 0,0 -170,32.098 -262.5,149.598 -92.5,117.5 63.629,574.97 186.4,598.78"
         style="fill:#1d2a30;fill-opacity:1;fill-rule:nonzero;stroke:none"
         id="path160" /><path
         d="m 1133.77,740.16 c -39.38,9.449 -173.043,47.738 -251.27,147.11 -19.559,24.839 -28,64.878 -27.992,112.8 0.019,178.75 117.578,467.2 214.392,485.98 1.18,0.23 2.31,0.34 3.39,0.34 14.8,0 20.37,-21.21 20.36,-55.05 -0.04,-103.51 -52.26,-325.25 -52.23,-420.19 0.01,-16.259 1.54,-28.791 5.14,-36.38 28.37,-59.95 130.14,-100.321 152.55,-108.602 L 1133.77,740.16"
         style="fill:#182124;fill-opacity:1;fill-rule:nonzero;stroke:none"
         id="path162" /><path
         d="m 1202.5,874.77 -70,-137.098 60,-12.902 55,126.25 -45,23.75"
         style="fill:#1d2a30;fill-opacity:1;fill-rule:nonzero;stroke:none"
         id="path164" /><path
         d="m 1192.5,724.77 -60,12.902 70,137.098 45,-23.75 -7.59,-17.442 -39.61,-90.906 -7.8,-17.902"
         style="fill:#44555d;fill-opacity:1;fill-rule:nonzero;stroke:none"
         id="path166" /><path
         d="m 1340,684.77 v -21.801 c 0,-14.699 12.23,-28.199 27.03,-28.199 h 803.9 c 14.8,0 29.07,13.5 29.07,28.199 v 21.801 h -860"
         style="fill:#1d2a30;fill-opacity:1;fill-rule:nonzero;stroke:none"
         id="path168" /><path
         d="m 1667.13,634.77 h -300.1 c -14.8,0 -27.03,13.5 -27.03,28.199 v 21.801 h 307.06 -7.06 v -21.801 c 0,-14.699 12.43,-28.199 27.13,-28.199"
         style="fill:#44555d;fill-opacity:1;fill-rule:nonzero;stroke:none"
         id="path170" /><path
         d="m 2170.93,634.77 h -503.8 c -14.7,0 -27.13,13.5 -27.13,28.199 v 21.801 h 7.06 l -0.33,-1.032 c -0.93,-2.91 -1.37,-5.738 -1.37,-8.418 0,-11.75 8.5,-20.55 21.77,-20.55 h 20 v 0 h 511.1 c 0.1,0 0.21,0 0.31,0 -4,-11.161 -15.63,-20 -27.61,-20"
         style="fill:#6a797f;fill-opacity:1;fill-rule:nonzero;stroke:none"
         id="path172" /><path
         d="m 1667.13,654.77 h 531.1 c 16.3,0 33.6,12.8 38.6,28.5 l 121.8,382.05 c 5,15.7 -4.1,29.45 -20.4,29.45 h -531.1 c -16.3,0 -33.6,-13.75 -38.6,-29.45 l -121.8,-381.582 c -5,-15.699 4.1,-28.968 20.4,-28.968"
         style="fill:#1d2a30;fill-opacity:1;fill-rule:nonzero;stroke:none"
         id="path174" /><path
         d="m 1687.13,654.77 h -20 c -13.27,0 -21.77,8.8 -21.77,20.55 0,2.68 0.44,5.508 1.37,8.418 l 121.8,381.582 c 5,15.7 22.3,29.45 38.6,29.45 h 531.1 c 13.28,0 21.77,-9.13 21.77,-20.99 v 0 c 0,11.86 -8.49,20.99 -21.77,20.99 h -511.1 c -16.3,0 -33.6,-13.75 -38.6,-29.45 l -121.8,-381.582 c -5,-15.699 4.1,-28.968 20.4,-28.968"
         style="fill:#44555d;fill-opacity:1;fill-rule:nonzero;stroke:none"
         id="path176" /><path
         d="m 2198.23,654.77 h -511.1 c -16.3,0 -25.4,13.269 -20.4,28.968 l 121.8,381.582 c 5,15.7 22.3,29.45 38.6,29.45 h 511.1 c 13.28,0 21.77,-9.13 21.77,-20.99 0,-2.71 -0.44,-5.55 -1.37,-8.46 l -37,-116.05 -0.79,-2.5 -4.68,-14.668 -36.35,-114.024 -34.85,-109.308 -8.13,-25.5 c -5,-15.7 -22.3,-28.5 -38.6,-28.5 m -145.02,261.902 -73.53,-52.082 31.79,-52.07 73.53,52.07 -31.79,52.082"
         style="fill:#6a797f;fill-opacity:1;fill-rule:nonzero;stroke:none"
         id="path178" /><path
         d="m 2011.47,812.52 -31.79,52.07 73.53,52.082 31.79,-52.082 -73.53,-52.07"
         style="fill:#8a9598;fill-opacity:1;fill-rule:nonzero;stroke:none"
         id="path180" /><path
         d="M 2096.12,2540.44 H 1872.3 v 131.97 h -211.12 v 627.93 c 0,48.29 39.14,87.43 87.43,87.43 h 150.19 v -543.73 0 c 0,-40.46 32.8,-73.25 73.26,-73.25 h 30.02 v 0 h 494.57 v -51.7 h -128.48 c -35.92,0 -65.8,-25.85 -72.06,-59.96 h -112.56 c -48.29,0 -87.43,-39.14 -87.43,-87.43 v -31.26"
         style="fill:#395eb4;fill-opacity:1;fill-rule:nonzero;stroke:none"
         id="path182" /><path
         d="m 2535.54,2770.79 h -563.48 c -40.46,0 -73.26,32.79 -73.26,73.25 v 563.49 c 0,40.45 32.8,73.26 73.26,73.26 h 563.48 c 40.46,0 73.26,-32.81 73.26,-73.26 v -563.49 c 0,-40.46 -32.8,-73.25 -73.26,-73.25"
         style="fill:#4870c0;fill-opacity:1;fill-rule:nonzero;stroke:none"
         id="path184" /><path
         d="m 2002.08,2770.79 h -30.02 c -40.46,0 -73.26,32.79 -73.26,73.25 v 563.49 c 0,40.45 32.8,73.26 73.26,73.26 h 526.25 v 0 h -496.23 c -40.46,0 -73.26,-32.81 -73.26,-73.26 v -563.49 c 0,-40.46 32.8,-73.25 73.26,-73.25"
         style="fill:#799bd7;fill-opacity:1;fill-rule:nonzero;stroke:none"
         id="path186" /><path
         d="m 2173.36,3171.06 c -32.11,0 -58.13,26.03 -58.13,58.13 0,32.11 26.02,58.13 58.13,58.13 32.1,0 58.13,-26.02 58.13,-58.13 0,-32.1 -26.03,-58.13 -58.13,-58.13 m 135.14,36.66 v 42.94 l -22.12,2.08 c -2.98,14.4 -8.68,27.78 -16.49,39.67 l 14.21,17.16 -30.37,30.36 -17.15,-14.2 c -11.89,7.8 -25.27,13.5 -39.67,16.48 l -2.08,22.12 h -42.94 l -2.09,-22.11 c -14.39,-2.99 -27.77,-8.69 -39.66,-16.49 l -17.16,14.2 -30.36,-30.36 14.2,-17.16 c -7.8,-11.89 -13.5,-25.27 -16.49,-39.67 l -22.11,-2.08 v -42.94 l 22.11,-2.08 c 2.99,-14.4 8.69,-27.78 16.49,-39.67 l -14.2,-17.15 30.36,-30.37 17.16,14.2 c 11.89,-7.79 25.27,-13.5 39.66,-16.49 l 2.09,-22.11 h 42.94 l 2.08,22.11 c 14.4,2.99 27.78,8.7 39.67,16.49 l 17.15,-14.2 30.37,30.37 -14.21,17.15 c 7.81,11.89 13.51,25.27 16.5,39.67 l 22.11,2.08"
         style="fill:#ffffff;fill-opacity:1;fill-rule:nonzero;stroke:none"
         id="path188" /><path
         d="m 2376.65,3057.78 c -25.16,0 -45.56,20.4 -45.56,45.55 0,25.16 20.4,45.56 45.56,45.56 25.15,0 45.55,-20.4 45.55,-45.56 0,-25.15 -20.4,-45.55 -45.55,-45.55 m 105.89,28.73 v 33.65 l -17.33,1.63 c -2.33,11.28 -6.81,21.76 -12.92,31.08 l 11.13,13.45 -23.79,23.79 -13.45,-11.13 c -9.31,6.11 -19.8,10.58 -31.08,12.92 l -1.63,17.33 h -33.65 l -1.63,-17.33 c -11.28,-2.34 -21.77,-6.81 -31.08,-12.92 l -13.45,11.13 -23.79,-23.79 11.13,-13.45 c -6.11,-9.32 -10.58,-19.8 -12.92,-31.08 l -17.33,-1.63 v -33.65 l 17.33,-1.63 c 2.34,-11.28 6.81,-21.77 12.92,-31.09 l -11.13,-13.44 23.79,-23.8 13.45,11.14 c 9.31,-6.12 19.8,-10.59 31.08,-12.92 l 1.63,-17.33 h 33.65 l 1.63,17.33 c 11.28,2.33 21.77,6.8 31.09,12.92 l 13.44,-11.14 23.79,23.8 -11.13,13.44 c 6.11,9.32 10.59,19.81 12.92,31.09 l 17.33,1.63"
         style="fill:#ffffff;fill-opacity:1;fill-rule:nonzero;stroke:none"
         id="path190" /><path
         d="m 2219.55,2966.84 c -21.13,0 -38.26,17.14 -38.26,38.27 0,21.13 17.13,38.26 38.26,38.26 21.13,0 38.26,-17.13 38.26,-38.26 0,-21.13 -17.13,-38.27 -38.26,-38.27 m 88.95,24.13 v 28.27 l -14.56,1.37 c -1.96,9.47 -5.72,18.28 -10.85,26.1 l 9.35,11.3 -19.99,19.98 -11.29,-9.35 c -7.82,5.14 -16.63,8.9 -26.11,10.86 l -1.37,14.55 h -28.26 l -1.37,-14.55 c -9.48,-1.96 -18.28,-5.72 -26.11,-10.86 l -11.29,9.35 -19.98,-19.98 9.34,-11.3 c -5.13,-7.82 -8.89,-16.63 -10.85,-26.1 l -14.55,-1.37 v -28.27 l 14.55,-1.36 c 1.96,-9.48 5.72,-18.29 10.85,-26.11 l -9.34,-11.29 19.98,-19.99 11.29,9.35 c 7.83,-5.14 16.63,-8.89 26.11,-10.86 l 1.37,-14.55 h 28.26 l 1.37,14.55 c 9.48,1.97 18.29,5.72 26.11,10.86 l 11.29,-9.35 19.99,19.99 -9.35,11.29 c 5.13,7.82 8.89,16.63 10.85,26.11 l 14.56,1.36"
         style="fill:#ffffff;fill-opacity:1;fill-rule:nonzero;stroke:none"
         id="path192" /><path
         d="m 2496.65,2770.79 h -494.57 c -40.46,0 -73.26,32.79 -73.26,73.25 v 563.49 c 0,40.45 32.8,73.26 73.26,73.26 h 496.23 c -1.09,-6.08 -1.66,-12.33 -1.66,-18.71 v -691.29 m -318.71,170.78 c 7.83,-5.14 16.63,-8.89 26.11,-10.86 l 1.37,-14.55 h 28.26 l 1.37,14.55 c 9.48,1.97 18.29,5.72 26.11,10.86 l 11.29,-9.35 19.99,19.99 -9.35,11.29 c 5.13,7.82 8.89,16.63 10.85,26.11 l 14.56,1.36 v 28.27 l -14.56,1.37 c -1.96,9.47 -5.72,18.28 -10.85,26.1 l 9.35,11.3 -19.99,19.98 -11.29,-9.35 c -7.82,5.14 -16.63,8.9 -26.11,10.86 l -1.37,14.55 h -28.26 l -1.37,-14.55 c -9.48,-1.96 -18.28,-5.72 -26.11,-10.86 l -11.29,9.35 -19.98,-19.98 9.34,-11.3 c -5.13,-7.82 -8.89,-16.63 -10.85,-26.1 l -14.55,-1.37 v -28.27 l 14.55,-1.36 c 1.96,-9.48 5.72,-18.29 10.85,-26.11 l -9.34,-11.29 19.98,-19.99 11.29,9.35 m 149.17,86.12 c 9.31,-6.12 19.8,-10.59 31.08,-12.92 l 1.63,-17.33 h 33.65 l 1.63,17.33 c 11.28,2.33 21.77,6.8 31.09,12.92 l 13.44,-11.14 23.79,23.8 -11.13,13.44 c 6.11,9.32 10.59,19.81 12.92,31.09 l 17.33,1.63 v 33.65 l -17.33,1.63 c -2.33,11.28 -6.81,21.76 -12.92,31.08 l 11.13,13.45 -23.79,23.79 -13.45,-11.13 c -9.31,6.11 -19.8,10.58 -31.08,12.92 l -1.63,17.33 h -33.65 l -1.63,-17.33 c -11.28,-2.34 -21.77,-6.81 -31.08,-12.92 l -13.45,11.13 -23.79,-23.79 11.13,-13.45 c -6.11,-9.32 -10.58,-19.8 -12.92,-31.08 l -17.33,-1.63 v -33.65 l 17.33,-1.63 c 2.34,-11.28 6.81,-21.77 12.92,-31.09 l -11.13,-13.44 23.79,-23.8 13.45,11.14 m -216.97,104.96 c 11.89,-7.79 25.27,-13.5 39.66,-16.49 l 2.09,-22.11 h 42.94 l 2.08,22.11 c 14.4,2.99 27.78,8.7 39.67,16.49 l 17.15,-14.2 30.37,30.37 -14.21,17.15 c 7.81,11.89 13.51,25.27 16.5,39.67 l 22.11,2.08 v 42.94 l -22.12,2.08 c -2.98,14.4 -8.68,27.78 -16.49,39.67 l 14.21,17.16 -30.37,30.36 -17.15,-14.2 c -11.89,7.8 -25.27,13.5 -39.67,16.48 l -2.08,22.12 h -42.94 l -2.09,-22.11 c -14.39,-2.99 -27.77,-8.69 -39.66,-16.49 l -17.16,14.2 -30.36,-30.36 14.2,-17.16 c -7.8,-11.89 -13.5,-25.27 -16.49,-39.67 l -22.11,-2.08 v -42.94 l 22.11,-2.08 c 2.99,-14.4 8.69,-27.78 16.49,-39.67 l -14.2,-17.15 30.36,-30.37 17.16,14.2 m 109.41,-165.81 c -21.13,0 -38.26,17.14 -38.26,38.27 0,21.13 17.13,38.26 38.26,38.26 21.13,0 38.26,-17.13 38.26,-38.26 0,-21.13 -17.13,-38.27 -38.26,-38.27 m 157.1,90.94 c -25.16,0 -45.56,20.4 -45.56,45.55 0,25.16 20.4,45.56 45.56,45.56 25.15,0 45.55,-20.4 45.55,-45.56 0,-25.15 -20.4,-45.55 -45.55,-45.55 m -203.29,113.28 c -32.11,0 -58.13,26.03 -58.13,58.13 0,32.11 26.02,58.13 58.13,58.13 32.1,0 58.13,-26.02 58.13,-58.13 0,-32.1 -26.03,-58.13 -58.13,-58.13"
         style="fill:#96b3e2;fill-opacity:1;fill-rule:nonzero;stroke:none"
         id="path194" /><path
         d="m 2194.83,3094.05 h -42.94 l -2.09,22.11 c -14.39,2.99 -27.77,8.7 -39.66,16.49 l -17.16,-14.2 -30.36,30.37 14.2,17.15 c -7.8,11.89 -13.5,25.27 -16.49,39.67 l -22.11,2.08 v 42.94 l 22.11,2.08 c 2.99,14.4 8.69,27.78 16.49,39.67 l -14.2,17.16 30.36,30.36 17.16,-14.2 c 11.89,7.8 25.27,13.5 39.66,16.49 l 2.09,22.11 h 42.94 l 2.08,-22.12 c 14.4,-2.98 27.78,-8.68 39.67,-16.48 l 17.15,14.2 30.37,-30.36 -14.21,-17.16 c 7.81,-11.89 13.51,-25.27 16.49,-39.67 l 22.12,-2.08 v -42.94 l -22.11,-2.08 c -2.99,-14.4 -8.69,-27.78 -16.5,-39.67 l 14.21,-17.15 -30.37,-30.37 -17.15,14.2 c -11.89,-7.79 -25.27,-13.5 -39.67,-16.49 l -2.08,-22.11 m -21.47,193.27 c -32.11,0 -58.13,-26.02 -58.13,-58.13 0,-32.1 26.02,-58.13 58.13,-58.13 32.1,0 58.13,26.03 58.13,58.13 0,32.11 -26.03,58.13 -58.13,58.13"
         style="fill:#ffffff;fill-opacity:1;fill-rule:nonzero;stroke:none"
         id="path196" /><path
         d="m 2393.47,2997.44 h -33.65 l -1.63,17.33 c -11.28,2.33 -21.77,6.8 -31.08,12.92 l -13.45,-11.14 -23.79,23.8 11.13,13.44 c -6.11,9.32 -10.58,19.81 -12.92,31.09 l -17.33,1.63 v 33.65 l 17.33,1.63 c 2.34,11.28 6.81,21.76 12.92,31.08 l -11.13,13.45 23.79,23.79 13.45,-11.13 c 9.31,6.11 19.8,10.58 31.08,12.92 l 1.63,17.33 h 33.65 l 1.63,-17.33 c 11.28,-2.34 21.77,-6.81 31.08,-12.92 l 13.45,11.13 23.79,-23.79 -11.13,-13.45 c 6.11,-9.32 10.59,-19.8 12.92,-31.08 l 17.33,-1.63 v -33.65 l -17.33,-1.63 c -2.33,-11.28 -6.81,-21.77 -12.92,-31.09 l 11.13,-13.44 -23.79,-23.8 -13.44,11.14 c -9.32,-6.12 -19.81,-10.59 -31.09,-12.92 l -1.63,-17.33 m -16.82,151.45 c -25.16,0 -45.56,-20.4 -45.56,-45.56 0,-25.15 20.4,-45.55 45.56,-45.55 25.15,0 45.55,20.4 45.55,45.55 0,25.16 -20.4,45.56 -45.55,45.56"
         style="fill:#ffffff;fill-opacity:1;fill-rule:nonzero;stroke:none"
         id="path198" /><path
         d="m 2233.68,2916.16 h -28.26 l -1.37,14.55 c -9.48,1.97 -18.28,5.72 -26.11,10.86 l -11.29,-9.35 -19.98,19.99 9.34,11.29 c -5.13,7.82 -8.89,16.63 -10.85,26.11 l -14.55,1.36 v 28.27 l 14.55,1.37 c 1.96,9.47 5.72,18.28 10.85,26.1 l -9.34,11.3 19.98,19.98 11.29,-9.35 c 7.83,5.14 16.63,8.9 26.11,10.86 l 1.37,14.55 h 28.26 l 1.37,-14.55 c 9.48,-1.96 18.29,-5.72 26.11,-10.86 l 11.29,9.35 19.99,-19.98 -9.35,-11.3 c 5.13,-7.82 8.89,-16.63 10.85,-26.1 l 14.56,-1.37 v -28.27 l -14.56,-1.36 c -1.96,-9.48 -5.72,-18.29 -10.85,-26.11 l 9.35,-11.29 -19.99,-19.99 -11.29,9.35 c -7.82,-5.14 -16.63,-8.89 -26.11,-10.86 l -1.37,-14.55 m -14.13,127.21 c -21.13,0 -38.26,-17.13 -38.26,-38.26 0,-21.13 17.13,-38.27 38.26,-38.27 21.13,0 38.26,17.14 38.26,38.27 0,21.13 -17.13,38.26 -38.26,38.26"
         style="fill:#ffffff;fill-opacity:1;fill-rule:nonzero;stroke:none"
         id="path200" /><path
         d="m 3136.75,2286.23 c -33.23,10.07 -67.14,21.28 -101.82,33.68 v 226.2 h 102.14 c -0.21,-2.17 -0.32,-4.37 -0.32,-6.59 v -253.29"
         style="fill:#395eb4;fill-opacity:1;fill-rule:nonzero;stroke:none"
         id="path202" /><path
         d="m 3642.48,1782.03 h -621.66 c -44.63,0 -80.82,36.18 -80.82,80.82 v 11.97 c 2.25,7.75 3.45,15.94 3.45,24.41 v 109.86 h 18.22 c 40.46,0 73.26,32.8 73.26,73.26 v 237.56 c 34.68,-12.4 68.59,-23.61 101.82,-33.68 v -267.62 0 c 0,-37.4 30.32,-67.72 67.73,-67.72 h 27.75 v 0 h 491.07 v -88.04 c 0,-44.64 -36.18,-80.82 -80.82,-80.82"
         style="fill:#4067ba;fill-opacity:1;fill-rule:nonzero;stroke:none"
         id="path204" /><path
         d="m 3725.38,1950.89 h -520.9 c -37.41,0 -67.73,30.32 -67.73,67.72 v 520.91 c 0,37.4 30.32,67.72 67.73,67.72 h 520.9 c 37.4,0 67.72,-30.32 67.72,-67.72 v -520.91 c 0,-37.4 -30.32,-67.72 -67.72,-67.72"
         style="fill:#4870c0;fill-opacity:1;fill-rule:nonzero;stroke:none"
         id="path206" /><path
         d="m 3232.23,1950.89 h -27.75 c -37.41,0 -67.73,30.32 -67.73,67.72 v 520.91 c 0,2.22 0.11,4.42 0.32,6.59 h 27.75 c -0.21,-2.17 -0.32,-4.37 -0.32,-6.59 v -520.91 c 0,-37.4 30.33,-67.72 67.73,-67.72"
         style="fill:#658acf;fill-opacity:1;fill-rule:nonzero;stroke:none"
         id="path208" /><path
         d="m 3489.95,2173.68 c 0,-13.08 -10.61,-23.69 -23.69,-23.69 -13.08,0 -23.69,10.61 -23.69,23.69 0,13.08 10.61,23.69 23.69,23.69 13.08,0 23.69,-10.61 23.69,-23.69"
         style="fill:#ffffff;fill-opacity:1;fill-rule:nonzero;stroke:none"
         id="path210" /><path
         d="m 3464.26,2410.07 c -129.95,0 -235.3,-105.3 -235.3,-235.3 h 187.92 c 0,30 21.22,46.4 47.38,46.4 4.96,0 9.65,-1.4 14.14,-2.73 l 88.1,102.28 -62.21,-120.99 c 4.59,-7.28 7.35,-14.96 7.35,-24.96 h 187.93 c 0,130 -105.35,235.3 -235.31,235.3"
         style="fill:#ffffff;fill-opacity:1;fill-rule:nonzero;stroke:none"
         id="path212" /><path
         d="m 3793.1,2242.47 v 261.68 h 27.75 v -254.3 c -9.12,-2.6 -18.4,-5.07 -27.75,-7.38"
         style="fill:#658acf;fill-opacity:1;fill-rule:nonzero;stroke:none"
         id="path214" /><path
         d="m 3753.13,1950.89 h -29.83 2.08 c 37.4,0 67.72,30.32 67.72,67.72 v 223.86 c 9.35,2.31 18.63,4.78 27.75,7.38 v -231.24 c 0,-37.4 -30.32,-67.72 -67.72,-67.72"
         style="fill:#7498d6;fill-opacity:1;fill-rule:nonzero;stroke:none"
         id="path216" /><path
         d="m 3725.38,1950.89 h -493.15 c -37.4,0 -67.73,30.32 -67.73,67.72 v 520.91 c 0,2.22 0.11,4.42 0.32,6.59 h 58.37 c 11.08,-24.73 35.9,-41.96 64.75,-41.96 h 505.16 v -485.54 c 0,-37.4 -30.32,-67.72 -67.72,-67.72 m -259.12,246.48 c -13.08,0 -23.69,-10.61 -23.69,-23.69 0,-13.08 10.61,-23.69 23.69,-23.69 13.08,0 23.69,10.61 23.69,23.69 0,13.08 -10.61,23.69 -23.69,23.69 m 100.24,123.35 -62.21,-120.99 c 4.59,-7.28 7.35,-14.96 7.35,-24.96 h 187.93 c 0,130 -105.35,235.3 -235.31,235.3 -129.95,0 -235.3,-105.3 -235.3,-235.3 h 187.92 c 0,30 21.22,46.4 47.38,46.4 4.96,0 9.65,-1.4 14.14,-2.73 l 88.1,102.28"
         style="fill:#85a5dc;fill-opacity:1;fill-rule:nonzero;stroke:none"
         id="path218" /><path
         d="m 3466.26,2149.99 c -13.08,0 -23.69,10.61 -23.69,23.69 0,13.08 10.61,23.69 23.69,23.69 13.08,0 23.69,-10.61 23.69,-23.69 0,-13.08 -10.61,-23.69 -23.69,-23.69"
         style="fill:#ffffff;fill-opacity:1;fill-rule:nonzero;stroke:none"
         id="path220" /><path
         d="m 3699.57,2174.77 h -187.93 c 0,10 -2.76,17.68 -7.35,24.96 l 62.21,120.99 -88.1,-102.28 c -4.49,1.33 -9.18,2.73 -14.14,2.73 -26.16,0 -47.38,-16.4 -47.38,-46.4 h -187.92 c 0,130 105.35,235.3 235.3,235.3 129.96,0 235.31,-105.3 235.31,-235.3"
         style="fill:#ffffff;fill-opacity:1;fill-rule:nonzero;stroke:none"
         id="path222" /><path
         d="m 3833.39,2504.15 h -12.54 v 35.37 c 0,37.4 -30.32,67.72 -67.72,67.72 h -27.75 v 0 h -217.09 c 6.23,13.46 9.71,28.45 9.71,44.26 v 24.6 h 386.3 v -101.04 c 0,-39.16 -31.75,-70.91 -70.91,-70.91"
         style="fill:#395eb4;fill-opacity:1;fill-rule:nonzero;stroke:none"
         id="path224" /><path
         d="m 3820.85,2504.15 h -27.75 v 35.37 c 0,37.4 -30.32,67.72 -67.72,67.72 h 27.75 c 37.4,0 67.72,-30.32 67.72,-67.72 v -35.37"
         style="fill:#4b70c0;fill-opacity:1;fill-rule:nonzero;stroke:none"
         id="path226" /><path
         d="m 3793.1,2504.15 h -505.16 c -28.85,0 -53.67,17.23 -64.75,41.96 h 189.43 c 42.39,0 78.94,25.04 95.67,61.13 h 217.09 c 37.4,0 67.72,-30.32 67.72,-67.72 v -35.37"
         style="fill:#6185cc;fill-opacity:1;fill-rule:nonzero;stroke:none"
         id="path228" /><path
         d="m 3917.77,2676.1 h -457.04 c -32.81,0 -59.41,26.6 -59.41,59.42 v 457.04 c 0,32.82 26.6,59.42 59.41,59.42 h 457.04 c 32.82,0 59.42,-26.6 59.42,-59.42 v -457.04 c 0,-32.82 -26.6,-59.42 -59.42,-59.42"
         style="fill:#4870c0;fill-opacity:1;fill-rule:nonzero;stroke:none"
         id="path230" /><path
         d="m 3800.1,3064.07 c -8.95,0 -16.22,7.27 -16.22,16.23 0,8.96 7.27,16.22 16.22,16.22 8.96,0 16.23,-7.26 16.23,-16.22 0,-8.96 -7.27,-16.23 -16.23,-16.23 m -43.25,8.12 h -16.23 v 16.22 h 16.23 v -16.22 m 93.15,33.65 c 0,10.45 -8.47,18.93 -18.93,18.93 h -282.15 c -10.45,0 -18.92,-8.48 -18.92,-18.93 v -62.15 c 0,-10.45 8.47,-18.92 18.92,-18.92 h 282.15 c 10.46,0 18.93,8.47 18.93,18.92 v 62.15"
         style="fill:#ffffff;fill-opacity:1;fill-rule:nonzero;stroke:none"
         id="path232" /><path
         d="m 3800.1,2947.82 c -8.95,0 -16.22,7.26 -16.22,16.22 0,8.96 7.27,16.22 16.22,16.22 8.96,0 16.23,-7.26 16.23,-16.22 0,-8.96 -7.27,-16.22 -16.23,-16.22 m -43.25,8.11 h -16.23 v 16.22 h 16.23 v -16.22 m 93.15,39.91 c 0,10.45 -8.47,18.93 -18.93,18.93 h -282.15 c -10.45,0 -18.92,-8.48 -18.92,-18.93 v -62.15 c 0,-10.45 8.47,-18.92 18.92,-18.92 h 282.15 c 10.46,0 18.93,8.47 18.93,18.92 v 62.15"
         style="fill:#ffffff;fill-opacity:1;fill-rule:nonzero;stroke:none"
         id="path234" /><path
         d="m 3800.1,2831.56 c -8.95,0 -16.22,7.26 -16.22,16.22 0,8.96 7.27,16.22 16.22,16.22 8.96,0 16.23,-7.26 16.23,-16.22 0,-8.96 -7.27,-16.22 -16.23,-16.22 m -43.25,8.11 h -16.23 v 16.22 h 16.23 v -16.22 m 93.15,46.17 c 0,10.45 -8.47,18.93 -18.93,18.93 h -282.15 c -10.45,0 -18.92,-8.48 -18.92,-18.93 v -62.15 c 0,-10.45 8.47,-18.92 18.92,-18.92 h 282.15 c 10.46,0 18.93,8.47 18.93,18.92 v 62.15"
         style="fill:#ffffff;fill-opacity:1;fill-rule:nonzero;stroke:none"
         id="path236" /><path
         d="m 3942.12,2676.1 h -37.82 13.47 c 32.82,0 59.42,26.6 59.42,59.42 v 457.04 0 c 0,32.82 -26.6,59.42 -59.42,59.42 h 24.35 c 32.82,0 59.42,-26.6 59.42,-59.42 v -457.04 c 0,-32.82 -26.6,-59.42 -59.42,-59.42"
         style="fill:#658acf;fill-opacity:1;fill-rule:nonzero;stroke:none"
         id="path238" /><path
         d="M 3917.77,2676.1 H 3518 v 173.82 c 4.12,0.97 8.13,2.22 12,3.73 v -29.96 c 0,-10.45 8.47,-18.92 18.92,-18.92 h 282.15 c 10.46,0 18.93,8.47 18.93,18.92 v 62.15 c 0,10.45 -8.47,18.93 -18.93,18.93 h -250.6 c 1.22,3.24 2.26,6.58 3.1,10 h 247.5 c 10.46,0 18.93,8.47 18.93,18.92 v 62.15 c 0,10.45 -8.47,18.93 -18.93,18.93 h -244.95 v 10 h 244.95 c 10.46,0 18.93,8.47 18.93,18.92 v 62.15 c 0,10.45 -8.47,18.93 -18.93,18.93 h -244.95 v 127.21 h 331.65 c 32.82,0 59.42,-26.6 59.42,-59.42 v -457.04 c 0,-32.82 -26.6,-59.42 -59.42,-59.42 m -117.67,155.46 c -8.95,0 -16.22,7.26 -16.22,16.22 0,8.96 7.27,16.22 16.22,16.22 8.96,0 16.23,-7.26 16.23,-16.22 0,-8.96 -7.27,-16.22 -16.23,-16.22 m -43.25,8.11 h -16.23 v 16.22 h 16.23 v -16.22 m 43.25,108.15 c -8.95,0 -16.22,7.26 -16.22,16.22 0,8.96 7.27,16.22 16.22,16.22 8.96,0 16.23,-7.26 16.23,-16.22 0,-8.96 -7.27,-16.22 -16.23,-16.22 m -43.25,8.11 h -16.23 v 16.22 h 16.23 v -16.22 m 43.25,108.14 c -8.95,0 -16.22,7.27 -16.22,16.23 0,8.96 7.27,16.22 16.22,16.22 8.96,0 16.23,-7.26 16.23,-16.22 0,-8.96 -7.27,-16.23 -16.23,-16.23 m -43.25,8.12 h -16.23 v 16.22 h 16.23 v -16.22"
         style="fill:#7498d6;fill-opacity:1;fill-rule:nonzero;stroke:none"
         id="path240" /><path
         d="m 3831.07,3024.77 h -244.95 v 100 h 244.95 c 10.46,0 18.93,-8.48 18.93,-18.93 v -62.15 c 0,-10.45 -8.47,-18.92 -18.93,-18.92 m -30.97,71.75 c -8.95,0 -16.22,-7.26 -16.22,-16.22 0,-8.96 7.27,-16.23 16.22,-16.23 8.96,0 16.23,7.27 16.23,16.23 0,8.96 -7.27,16.22 -16.23,16.22 m -59.48,-8.11 v -16.22 h 16.23 v 16.22 h -16.23"
         style="fill:#ffffff;fill-opacity:1;fill-rule:nonzero;stroke:none"
         id="path242" /><path
         d="m 3831.07,2914.77 h -247.5 c 1.67,6.77 2.55,13.85 2.55,21.14 v 78.86 h 244.95 c 10.46,0 18.93,-8.48 18.93,-18.93 v -62.15 c 0,-10.45 -8.47,-18.92 -18.93,-18.92 m -30.97,65.49 c -8.95,0 -16.22,-7.26 -16.22,-16.22 0,-8.96 7.27,-16.22 16.22,-16.22 8.96,0 16.23,7.26 16.23,16.22 0,8.96 -7.27,16.22 -16.23,16.22 m -59.48,-8.11 v -16.22 h 16.23 v 16.22 h -16.23"
         style="fill:#ffffff;fill-opacity:1;fill-rule:nonzero;stroke:none"
         id="path244" /><path
         d="m 3831.07,2804.77 h -282.15 c -10.45,0 -18.92,8.47 -18.92,18.92 v 29.96 c 23.23,9.1 41.66,27.75 50.47,51.12 h 250.6 c 10.46,0 18.93,-8.48 18.93,-18.93 v -62.15 c 0,-10.45 -8.47,-18.92 -18.93,-18.92 M 3800.1,2864 c -8.95,0 -16.22,-7.26 -16.22,-16.22 0,-8.96 7.27,-16.22 16.22,-16.22 8.96,0 16.23,7.26 16.23,16.22 0,8.96 -7.27,16.22 -16.23,16.22 m -59.48,-8.11 v -16.22 h 16.23 v 16.22 h -16.23"
         style="fill:#ffffff;fill-opacity:1;fill-rule:nonzero;stroke:none"
         id="path246" /><path
         d="m 2294.91,2516.28 c -36.63,2.68 -72.64,4.03 -107.93,4.03 -30.82,0 -61.14,-1.03 -90.86,-3.09 v 23.22 h 198.79 v -24.16"
         style="fill:#395eb4;fill-opacity:1;fill-rule:nonzero;stroke:none"
         id="path248" /><path
         d="m 2856.02,1811.8 h -672.47 c -48.29,0 -87.43,39.14 -87.43,87.43 v 617.99 c 29.72,2.06 60.04,3.09 90.86,3.09 35.29,0 71.3,-1.35 107.93,-4.03 v -433.93 0 c 0,-40.46 32.8,-73.26 73.26,-73.26 h 30.02 v 0 H 2940 v -134.27 c -10.56,-36.41 -44.16,-63.02 -83.98,-63.02"
         style="fill:#4067ba;fill-opacity:1;fill-rule:nonzero;stroke:none"
         id="path250" /><path
         d="m 2294.91,2540.44 h -198.79 v 31.26 c 0,48.29 39.14,87.43 87.43,87.43 h 112.56 c -0.79,-4.31 -1.2,-8.75 -1.2,-13.3 v -105.39"
         style="fill:#254ca5;fill-opacity:1;fill-rule:nonzero;stroke:none"
         id="path252" /><path
         d="m 2940,1874.82 v 134.27 h 3.45 v -109.86 c 0,-8.47 -1.2,-16.66 -3.45,-24.41"
         style="fill:#2d52aa;fill-opacity:1;fill-rule:nonzero;stroke:none"
         id="path254" /><path
         d="m 2931.65,2009.09 h -563.48 c -40.46,0 -73.26,32.8 -73.26,73.26 v 563.48 c 0,40.46 32.8,73.26 73.26,73.26 h 563.48 c 40.46,0 73.26,-32.8 73.26,-73.26 v -563.48 c 0,-40.46 -32.8,-73.26 -73.26,-73.26"
         style="fill:#4870c0;fill-opacity:1;fill-rule:nonzero;stroke:none"
         id="path256" /><path
         d="m 2398.19,2009.09 h -30.02 c -40.46,0 -73.26,32.8 -73.26,73.26 v 563.48 c 0,40.46 32.8,73.26 73.26,73.26 h 128.48 -98.46 c -40.46,0 -73.26,-32.8 -73.26,-73.26 v -563.48 c 0,-40.46 32.8,-73.26 73.26,-73.26"
         style="fill:#a1bce6;fill-opacity:1;fill-rule:nonzero;stroke:none"
         id="path258" /><path
         d="m 2453.48,2169.16 c -21.66,21.67 -21.66,56.8 0,78.47 l 129.49,129.48 c 12.23,12.23 32.05,12.23 44.27,0 l 34.2,-34.19 c 12.22,-12.22 12.22,-32.04 0,-44.27 l -129.49,-129.49 c -21.67,-21.67 -56.8,-21.67 -78.47,0"
         style="fill:#ffffff;fill-opacity:1;fill-rule:nonzero;stroke:none"
         id="path260" /><path
         d="m 2692.06,2382.29 -25.45,25.45 146.32,146.31 31.82,6.38 -6.37,-31.82 -146.32,-146.32"
         style="fill:#ffffff;fill-opacity:1;fill-rule:nonzero;stroke:none"
         id="path262" /><path
         d="m 2677.74,2348.35 -45.06,45.07 c -4.03,4.02 -4.03,10.55 0,14.58 4.02,4.02 10.55,4.02 14.58,0 l 45.06,-45.07 c 4.02,-4.02 4.02,-10.55 0,-14.58 -4.03,-4.02 -10.56,-4.02 -14.58,0"
         style="fill:#ffffff;fill-opacity:1;fill-rule:nonzero;stroke:none"
         id="path264" /><path
         d="m 2617.08,2434.64 -61.72,61.89 c 11.55,30.9 -11.72,68.91 -37.04,78.95 l -0.51,-47.64 c -0.01,-11.04 -9.2,-20.21 -20.24,-20.19 -11.05,0.01 -20.21,8.76 -20.2,19.8 l 0.07,47.2 c -20.01,-7.77 -41.03,-30.54 -41.07,-57.54 -0.04,-30.63 23.78,-55.49 53.39,-59.65 10.28,-1.44 20.01,-0.19 29.79,4.17 l 62.17,-62.34 35.36,35.35"
         style="fill:#ffffff;fill-opacity:1;fill-rule:nonzero;stroke:none"
         id="path266" /><path
         d="m 2822.49,2199.93 -0.09,-47.23 c 20.01,7.77 41.01,30.53 41.05,57.53 0.04,30.63 -22.45,56.81 -52.06,60.97 -10.29,1.44 -18.7,1.51 -28.47,-2.86 l -64.63,64.81 -35.36,-35.36 64.17,-64.34 c -18.63,-37.97 10.4,-70.24 35.71,-80.28 l -0.15,46.98 c 0.01,11.05 8.87,19.88 19.91,19.86 11.05,-0.01 19.93,-9.03 19.92,-20.08"
         style="fill:#ffffff;fill-opacity:1;fill-rule:nonzero;stroke:none"
         id="path268" /><path
         d="m 3034.93,2319.91 c -9.96,3.56 -19.94,7.21 -30.02,10.97 v 215.23 h 30.02 v -226.2"
         style="fill:#557ac6;fill-opacity:1;fill-rule:nonzero;stroke:none"
         id="path270" /><path
         d="m 2961.67,2009.09 h -18.22 v 0.95 c 34.85,5.64 61.46,35.87 61.46,72.31 v 248.53 c 10.08,-3.76 20.06,-7.41 30.02,-10.97 v -237.56 c 0,-40.46 -32.8,-73.26 -73.26,-73.26"
         style="fill:#6086cd;fill-opacity:1;fill-rule:nonzero;stroke:none"
         id="path272" /><path
         d="m 2940,2009.09 h -541.81 v 0 h 533.46 c 2.82,0 5.61,0.16 8.35,0.47 v -0.47"
         style="fill:#6086cd;fill-opacity:1;fill-rule:nonzero;stroke:none"
         id="path274" /><path
         d="M 2943.45,2009.09 H 2940 v 0.47 c 1.16,0.13 2.31,0.29 3.45,0.48 v -0.95"
         style="fill:#5175c0;fill-opacity:1;fill-rule:nonzero;stroke:none"
         id="path276" /><path
         d="m 2931.65,2009.09 h -533.46 c -40.46,0 -73.26,32.8 -73.26,73.26 v 563.48 c 0,40.46 32.8,73.26 73.26,73.26 h 98.46 v -67.59 c 0,-58.2 47.19,-105.39 105.39,-105.39 h 202.95 l -138.38,-138.37 25.45,-25.45 146.32,146.32 3.5,17.5 h 163.03 v -463.76 c 0,-36.44 -26.61,-66.67 -61.46,-72.31 -1.14,-0.19 -2.29,-0.35 -3.45,-0.48 -2.74,-0.31 -5.53,-0.47 -8.35,-0.47 m -129.1,210.92 c 0,0 0.01,0 0.02,0 11.05,-0.01 19.93,-9.03 19.92,-20.08 l -0.09,-47.23 c 20.01,7.77 41.01,30.53 41.05,57.53 0.04,30.63 -22.45,56.81 -52.06,60.97 -3.82,0.53 -7.38,0.88 -10.85,0.88 -5.87,0 -11.48,-0.99 -17.62,-3.74 l -64.63,64.81 -35.36,-35.36 64.17,-64.34 c -18.63,-37.97 10.4,-70.24 35.71,-80.28 v 0 0 l -0.15,46.98 c 0.01,11.04 8.85,19.86 19.89,19.86 m -197.44,166.27 c -8.01,0 -16.02,-3.05 -22.14,-9.17 l -129.49,-129.48 c -21.66,-21.67 -21.66,-56.8 0,-78.47 10.84,-10.83 25.04,-16.25 39.24,-16.25 14.19,0 28.39,5.42 39.23,16.25 l 129.49,129.49 c 12.22,12.23 12.22,32.05 0,44.27 l -34.2,34.19 c -6.11,6.12 -14.12,9.17 -22.13,9.17 m 34.86,24.74 c -2.64,0 -5.28,-1.01 -7.29,-3.02 -4.03,-4.03 -4.03,-10.56 0,-14.58 l 45.06,-45.07 c 2.01,-2.01 4.65,-3.02 7.29,-3.02 2.64,0 5.27,1.01 7.29,3.02 4.02,4.03 4.02,10.56 0,14.58 l -45.06,45.07 c -2.02,2.01 -4.66,3.02 -7.29,3.02 m -120.42,50.61 62.17,-62.34 35.36,35.35 -61.72,61.89 c 11.55,30.9 -11.72,68.91 -37.04,78.95 l -0.51,-47.64 c -0.01,-11.03 -9.18,-20.19 -20.21,-20.19 -0.01,0 -0.02,0 -0.03,0 -11.05,0.01 -20.21,8.76 -20.2,19.8 l 0.07,47.2 c -20.01,-7.77 -41.03,-30.54 -41.07,-57.54 -0.04,-30.63 23.78,-55.49 53.39,-59.65 2.69,-0.38 5.36,-0.57 7.99,-0.57 7.4,0 14.59,1.53 21.8,4.74"
         style="fill:#b4caec;fill-opacity:1;fill-rule:nonzero;stroke:none"
         id="path278" /><path
         d="m 2492.72,2152.91 c -14.2,0 -28.4,5.42 -39.24,16.25 -21.66,21.67 -21.66,56.8 0,78.47 l 129.49,129.48 c 6.12,6.12 14.13,9.17 22.14,9.17 8.01,0 16.02,-3.05 22.13,-9.17 l 34.2,-34.19 c 12.22,-12.22 12.22,-32.04 0,-44.27 l -129.49,-129.49 c -10.84,-10.83 -25.04,-16.25 -39.23,-16.25"
         style="fill:#ffffff;fill-opacity:1;fill-rule:nonzero;stroke:none"
         id="path280" /><path
         d="m 2692.06,2382.29 -25.45,25.45 138.38,138.37 h 36.89 l -3.5,-17.5 -146.32,-146.32"
         style="fill:#ffffff;fill-opacity:1;fill-rule:nonzero;stroke:none"
         id="path282" /><path
         d="m 2685.03,2345.33 c -2.64,0 -5.28,1.01 -7.29,3.02 l -45.06,45.07 c -4.03,4.02 -4.03,10.55 0,14.58 2.01,2.01 4.65,3.02 7.29,3.02 2.63,0 5.27,-1.01 7.29,-3.02 l 45.06,-45.07 c 4.02,-4.02 4.02,-10.55 0,-14.58 -2.02,-2.01 -4.65,-3.02 -7.29,-3.02"
         style="fill:#ffffff;fill-opacity:1;fill-rule:nonzero;stroke:none"
         id="path284" /><path
         d="m 2581.72,2399.29 -62.17,62.34 c -7.21,-3.21 -14.4,-4.74 -21.8,-4.74 -2.63,0 -5.3,0.19 -7.99,0.57 -29.61,4.16 -53.43,29.02 -53.39,59.65 0.04,27 21.06,49.77 41.07,57.54 l -0.07,-47.2 c -0.01,-11.04 9.15,-19.79 20.2,-19.8 0.01,0 0.02,0 0.03,0 11.03,0 20.2,9.16 20.21,20.19 l 0.51,47.64 c 25.32,-10.04 48.59,-48.05 37.04,-78.95 l 61.72,-61.89 -35.36,-35.35"
         style="fill:#ffffff;fill-opacity:1;fill-rule:nonzero;stroke:none"
         id="path286" /><path
         d="m 2822.4,2152.7 0.09,47.23 c 0.01,11.05 -8.87,20.07 -19.92,20.08 -0.01,0 -0.02,0 -0.02,0 -11.04,0 -19.88,-8.82 -19.89,-19.86 l 0.15,-46.98 c -25.31,10.04 -54.34,42.31 -35.71,80.28 l -64.17,64.34 35.36,35.36 64.63,-64.81 c 6.14,2.75 11.75,3.74 17.62,3.74 3.47,0 7.03,-0.35 10.85,-0.88 29.61,-4.16 52.1,-30.34 52.06,-60.97 -0.04,-27 -21.04,-49.76 -41.05,-57.53"
         style="fill:#ffffff;fill-opacity:1;fill-rule:nonzero;stroke:none"
         id="path288" /><path
         d="m 2782.42,2847.61 h 679.21 c 48.77,0 88.3,39.53 88.3,88.3 v 679.2 c 0,48.77 -39.53,88.31 -88.3,88.31 h -679.21 c -48.76,0 -88.3,-39.54 -88.3,-88.31 v -679.2 c 0,-48.77 39.54,-88.3 88.3,-88.3"
         style="fill:#4870c0;fill-opacity:1;fill-rule:nonzero;stroke:none"
         id="path290" /><path
         d="m 2694.12,3484.77 h -146.57 v 54.91 h 146.57 v -54.91 m -149.07,0 h -45.95 c 4.72,21.5 16,40.53 31.64,54.91 h 14.31 v -54.91"
         style="fill:#cecdcb;fill-opacity:1;fill-rule:nonzero;stroke:none"
         id="path292" /><path
         d="m 2545.05,3484.77 h 2.5 v 54.918 h -2.5 z"
         style="fill:#bdbcba;fill-opacity:1;fill-rule:nonzero;stroke:none"
         id="path294" /><g
         id="g296"><g
           id="g298"
           clip-path="url(#clipPath302)"><path
             d="m 2530.74,3539.68 h 163.383 v 27.7773 H 2530.74 Z"
             style="fill:#cecdcb;fill-opacity:1;fill-rule:nonzero;stroke:none"
             id="path304" /><g
             id="g306"
             transform="scale(10)"><text
               transform="matrix(1,0,0,-1,64.1133,354.076)"
               style="font-variant:normal;font-weight:normal;font-size:12px;font-family:Bebas;-inkscape-font-specification:Bebas;writing-mode:lr-tb;fill:#b3b2b1;fill-opacity:1;fill-rule:nonzero;stroke:none"
               id="text310"><tspan
                 x="0 4.3974624 10.806156 15.110356 19.41407 23.811525 30.305668 36.799812 43.208511 47.605957 54.014645 58.412102 64.821274 69.218735 75.712868 82.207008 88.615692 93.013153 99.421837 103.81979 110.22847 114.62593 121.03461 125.43208 131.84125 136.23869 142.6474 147.04486 153.45357 157.85152 164.26022 168.65768 175.06639 179.46385 185.95801 192.45216 198.9463 205.44046 211.9346 218.42876 224.83794 229.14166 233.44537 237.7491 242.05281 246.35654 250.754 257.24814 263.65735 268.05481 274.46347 278.767 283.07071 287.37445 291.77191 298.18109 302.57855 308.98727"
                 y="0"
                 sodipodi:role="line"
                 id="tspan308">1011100010101000101010101010101010000000111111001011110101</tspan></text></g></g></g><g
         id="g312"><g
           id="g314"
           clip-path="url(#clipPath318)"><path
             d="m 2545.05,3539.68 h 2.5 v 12.6172 h -2.5 z"
             style="fill:#bdbcba;fill-opacity:1;fill-rule:nonzero;stroke:none"
             id="path320" /><g
             id="g322"
             transform="scale(10)"><text
               transform="matrix(1,0,0,-1,64.1133,354.076)"
               style="font-variant:normal;font-weight:normal;font-size:12px;font-family:Bebas;-inkscape-font-specification:Bebas;writing-mode:lr-tb;fill:#b3b2b1;fill-opacity:1;fill-rule:nonzero;stroke:none"
               id="text326"><tspan
                 x="0 4.3974624 10.806156 15.110356 19.41407 23.811525 30.305668 36.799812 43.208511 47.605957 54.014645 58.412102 64.821274 69.218735 75.712868 82.207008 88.615692 93.013153 99.421837 103.81979 110.22847 114.62593 121.03461 125.43208 131.84125 136.23869 142.6474 147.04486 153.45357 157.85152 164.26022 168.65768 175.06639 179.46385 185.95801 192.45216 198.9463 205.44046 211.9346 218.42876 224.83794 229.14166 233.44537 237.7491 242.05281 246.35654 250.754 257.24814 263.65735 268.05481 274.46347 278.767 283.07071 287.37445 291.77191 298.18109 302.57855 308.98727"
                 y="0"
                 sodipodi:role="line"
                 id="tspan324">1011100010101000101010101010101010000000111111001011110101</tspan></text></g></g></g><path
         d="m 3141.85,2565.33 h -106.92 v 80.5 c 0,40.46 -32.8,73.26 -73.26,73.26 h -30.02 v 0 h -423.14 v 51.7 h 57.05 c 40.46,0 73.26,32.79 73.26,73.25 v 563.49 c 0,40.45 -32.8,73.26 -73.26,73.26 h -30.02 v 0 h -37.23 c 0.24,1.33 0.5,2.66 0.79,3.98 h 45.95 2.5 146.57 v -548.86 0 c 0,-48.77 39.54,-88.3 88.3,-88.3 h 36.19 v 0 h 398.42 v -240.37 h -12.55 c -28.27,0 -52.48,-17.31 -62.63,-41.91"
         style="fill:#395eb4;fill-opacity:1;fill-rule:nonzero;stroke:none"
         id="path328" /><path
         d="m 2496.65,2719.09 h 11.8633 v 51.6992 H 2496.65 Z"
         style="fill:#254ca5;fill-opacity:1;fill-rule:nonzero;stroke:none"
         id="path330" /><path
         d="m 2565.56,2770.79 h -57.05 27.03 c 40.46,0 73.26,32.79 73.26,73.25 v 563.49 0 c 0,40.45 -32.8,73.26 -73.26,73.26 h 30.02 c 40.46,0 73.26,-32.81 73.26,-73.26 v -563.49 c 0,-40.46 -32.8,-73.25 -73.26,-73.25"
         style="fill:#4b70c0;fill-opacity:1;fill-rule:nonzero;stroke:none"
         id="path332" /><path
         d="m 2535.54,2770.79 h -38.89 v 691.29 c 0,6.38 0.57,12.63 1.66,18.71 h 37.23 c 40.46,0 73.26,-32.81 73.26,-73.26 v -563.49 c 0,-40.46 -32.8,-73.25 -73.26,-73.25"
         style="fill:#708fd1;fill-opacity:1;fill-rule:nonzero;stroke:none"
         id="path334" /><path
         d="m 3137.07,2546.11 h -102.14 v 19.22 h 106.92 c -2.49,-6.02 -4.13,-12.47 -4.78,-19.22"
         style="fill:#254ca5;fill-opacity:1;fill-rule:nonzero;stroke:none"
         id="path336" /><path
         d="m 3164.82,2546.11 h -27.75 c 3.32,34.31 32.23,61.13 67.41,61.13 h 12.55 v -1.71 c -28,-6.42 -49.38,-30.2 -52.21,-59.42"
         style="fill:#4b70c0;fill-opacity:1;fill-rule:nonzero;stroke:none"
         id="path338" /><path
         d="m 3223.19,2546.11 h -58.37 c 2.83,29.22 24.21,53 52.21,59.42 v -30.47 c 0,-10.31 2.2,-20.11 6.16,-28.95"
         style="fill:#6185cc;fill-opacity:1;fill-rule:nonzero;stroke:none"
         id="path340" /><path
         d="m 3508.29,2607.24 h -291.26 v 240.37 h 184.29 v -112.09 0 c 0,-32.82 26.6,-59.42 59.41,-59.42 h 24.35 v 0 H 3518 v -24.6 c 0,-15.81 -3.48,-30.8 -9.71,-44.26"
         style="fill:#254ca5;fill-opacity:1;fill-rule:nonzero;stroke:none"
         id="path342" /><path
         d="m 3217.03,2605.53 v 1.71 h 291.26 v 0 h -276.06 c -5.23,0 -10.31,-0.59 -15.2,-1.71"
         style="fill:#3759ac;fill-opacity:1;fill-rule:nonzero;stroke:none"
         id="path344" /><path
         d="m 3412.62,2546.11 h -189.43 c -3.96,8.84 -6.16,18.64 -6.16,28.95 v 30.47 c 4.89,1.12 9.97,1.71 15.2,1.71 h 276.06 c -16.73,-36.09 -53.28,-61.13 -95.67,-61.13"
         style="fill:#4968ac;fill-opacity:1;fill-rule:nonzero;stroke:none"
         id="path346" /><path
         d="m 3485.08,2676.1 h -24.35 c -32.81,0 -59.41,26.6 -59.41,59.42 v 112.09 h 24.34 v -112.09 c 0,-32.82 26.61,-59.42 59.42,-59.42"
         style="fill:#4067ba;fill-opacity:1;fill-rule:nonzero;stroke:none"
         id="path348" /><path
         d="m 3518,2676.1 h -32.92 c -32.81,0 -59.42,26.6 -59.42,59.42 v 112.09 h 72.16 c 6.94,0 13.7,0.8 20.18,2.31 V 2676.1"
         style="fill:#557bc7;fill-opacity:1;fill-rule:nonzero;stroke:none"
         id="path350" /><path
         d="m 3004.91,2563.76 v 82.07 c 0,40.46 -32.8,73.26 -73.26,73.26 h 30.02 c 40.46,0 73.26,-32.8 73.26,-73.26 v -80.5 h -14.11 c -5.44,0 -10.77,-0.54 -15.91,-1.57"
         style="fill:#4b70c0;fill-opacity:1;fill-rule:nonzero;stroke:none"
         id="path352" /><path
         d="m 3034.93,2546.11 h -30.02 v 17.65 c 5.14,1.03 10.47,1.57 15.91,1.57 h 14.11 v -19.22"
         style="fill:#3f61b4;fill-opacity:1;fill-rule:nonzero;stroke:none"
         id="path354" /><path
         d="m 3004.91,2546.11 h -163.03 l 2.87,14.32 -31.82,-6.38 -7.94,-7.94 h -202.95 c -58.2,0 -105.39,47.19 -105.39,105.39 v 67.59 h 435 c 40.46,0 73.26,-32.8 73.26,-73.26 v -99.72"
         style="fill:#8aa1d4;fill-opacity:1;fill-rule:nonzero;stroke:none"
         id="path356" /><path
         d="m 2841.88,2546.11 h -36.89 l 7.94,7.94 31.82,6.38 -2.87,-14.32"
         style="fill:#cecdcb;fill-opacity:1;fill-rule:nonzero;stroke:none"
         id="path358" /><path
         d="m 2730.3,3567.46 h -36.18 v 47.65 c 0,48.77 39.54,88.31 88.3,88.31 h 679.21 v 0 h -643.02 c -48.77,0 -88.31,-39.54 -88.31,-88.31 v -47.65"
         style="fill:#a1bce6;fill-opacity:1;fill-rule:nonzero;stroke:none"
         id="path360" /><path
         d="m 2818.61,2847.61 h -36.19 c -48.76,0 -88.3,39.53 -88.3,88.3 v 631.55 h 36.18 v -631.55 c 0,-48.77 39.54,-88.3 88.31,-88.3"
         style="fill:#97b1e1;fill-opacity:1;fill-rule:nonzero;stroke:none"
         id="path362" /><path
         d="m 3115.15,3192.11 c -3.42,-4.52 -8.75,-7.34 -14.41,-7.34 h -0.18 c -5.72,0 -11.08,3 -14.45,7.62 l -91.91,126.66 c -5.86,8.08 -4.07,19.43 4.01,25.29 8.09,5.89 19.4,4.1 25.26,-3.98 l 77.59,-106.84 126.91,167.43 c 6.03,7.95 17.38,9.52 25.33,3.48 7.96,-6.03 9.52,-18.46 3.48,-26.42 l -141.63,-185.9 m 6.69,348.59 -262.17,-102.86 c 0,0 33.15,-360.01 262.17,-427.51 229.02,67.5 262.17,427.51 262.17,427.51 l -262.17,102.86"
         style="fill:#ffffff;fill-opacity:1;fill-rule:nonzero;stroke:none"
         id="path364" /><path
         d="m 3586.12,3484.77 h -36.19 v 54.91 h 36.19 v -54.91 m -6.73,164.23 h -36.19 c -13.29,31.95 -44.8,54.42 -81.57,54.42 h 36.19 c 36.76,0 68.28,-22.47 81.57,-54.42"
         style="fill:#ffffff;fill-opacity:1;fill-rule:nonzero;stroke:none"
         id="path366" /><g
         id="g368"><g
           id="g370"
           clip-path="url(#clipPath374)"><path
             d="m 3543.2,3539.68 h 42.9219 v 109.313 H 3543.2 Z"
             style="fill:#ffffff;fill-opacity:1;fill-rule:nonzero;stroke:none"
             id="path376" /><g
             id="g378"
             transform="scale(10)"><text
               transform="matrix(1,0,0,-1,64.1133,354.076)"
               style="font-variant:normal;font-weight:normal;font-size:12px;font-family:Bebas;-inkscape-font-specification:Bebas;writing-mode:lr-tb;fill:#e9e9e8;fill-opacity:1;fill-rule:nonzero;stroke:none"
               id="text382"><tspan
                 x="0 4.3974624 10.806156 15.110356 19.41407 23.811525 30.305668 36.799812 43.208511 47.605957 54.014645 58.412102 64.821274 69.218735 75.712868 82.207008 88.615692 93.013153 99.421837 103.81979 110.22847 114.62593 121.03461 125.43208 131.84125 136.23869 142.6474 147.04486 153.45357 157.85152 164.26022 168.65768 175.06639 179.46385 185.95801 192.45216 198.9463 205.44046 211.9346 218.42876 224.83794 229.14166 233.44537 237.7491 242.05281 246.35654 250.754 257.24814 263.65735 268.05481 274.46347 278.767 283.07071 287.37445 291.77191 298.18109 302.57855 308.98727"
                 y="0"
                 sodipodi:role="line"
                 id="tspan380">1011100010101000101010101010101010000000111111001011110101</tspan></text></g></g></g><path
         d="m 3549.93,3251.98 h 36.1914 v 232.785 H 3549.93 Z"
         style="fill:#658acf;fill-opacity:1;fill-rule:nonzero;stroke:none"
         id="path384" /><path
         d="m 3518,2849.92 v 18.02 c 4.38,3.63 8.4,7.68 12,12.08 v -26.37 c -3.87,-1.51 -7.88,-2.76 -12,-3.73 m 26.04,54.21 c 1.34,3.46 2.47,7.04 3.36,10.7 0.5,-0.04 1.01,-0.06 1.52,-0.06 h 34.65 c -0.84,-3.42 -1.88,-6.76 -3.1,-10 h -31.55 c -1.68,0 -3.32,-0.23 -4.88,-0.64 m 42.08,110.64 h -36.19 v 10 h 36.19 v -10 m 0,110 h -36.19 v 127.21 h 36.19 v -127.21"
         style="fill:#92b1e2;fill-opacity:1;fill-rule:nonzero;stroke:none"
         id="path386" /><path
         d="m 3549.93,3024.77 h 36.1914 v 100 H 3549.93 Z"
         style="fill:#ffffff;fill-opacity:1;fill-rule:nonzero;stroke:none"
         id="path388" /><path
         d="m 3583.57,2914.77 h -34.65 c -0.51,0 -1.02,0.02 -1.52,0.06 1.66,6.75 2.53,13.81 2.53,21.08 v 78.86 h 36.19 v -78.86 c 0,-7.29 -0.88,-14.37 -2.55,-21.14"
         style="fill:#ffffff;fill-opacity:1;fill-rule:nonzero;stroke:none"
         id="path390" /><path
         d="m 3530,2853.65 v 26.37 c 5.88,7.18 10.65,15.3 14.04,24.11 1.56,0.41 3.2,0.64 4.88,0.64 h 31.55 c -8.81,-23.37 -27.24,-42.02 -50.47,-51.12"
         style="fill:#ffffff;fill-opacity:1;fill-rule:nonzero;stroke:none"
         id="path392" /><path
         d="m 3497.82,2847.61 h -72.16 35.97 c 21.43,0 41.08,7.63 56.37,20.33 v -18.02 c -6.48,-1.51 -13.24,-2.31 -20.18,-2.31"
         style="fill:#7897d5;fill-opacity:1;fill-rule:nonzero;stroke:none"
         id="path394" /><path
         d="m 3518,2867.94 v 594.14 c 0,58.2 -47.18,105.38 -105.38,105.38 H 2730.3 v 47.65 c 0,48.77 39.54,88.31 88.31,88.31 h 643.02 c 48.77,0 88.3,-39.54 88.3,-88.31 v -75.43 -414.91 -100 -10 -78.86 c 0,-7.27 -0.87,-14.33 -2.53,-21.08 -0.89,-3.66 -2.02,-7.24 -3.36,-10.7 -3.39,-8.81 -8.16,-16.93 -14.04,-24.11 -3.6,-4.4 -7.62,-8.45 -12,-12.08"
         style="fill:#b4caec;fill-opacity:1;fill-rule:nonzero;stroke:none"
         id="path396" /><path
         d="m 3461.63,2847.61 h -643.02 c -48.77,0 -88.31,39.53 -88.31,88.3 v 631.55 h 682.32 c 58.2,0 105.38,-47.18 105.38,-105.38 v -594.14 c -15.29,-12.7 -34.94,-20.33 -56.37,-20.33 m -339.79,693.09 -262.17,-102.86 c 0,0 33.15,-360.01 262.17,-427.51 229.02,67.5 262.17,427.51 262.17,427.51 l -262.17,102.86 m -21.1,-355.93 h -0.18 c -5.72,0 -11.08,3 -14.45,7.62 l -91.91,126.66 c -5.86,8.08 -4.07,19.43 4.01,25.29 3.22,2.34 6.95,3.47 10.63,3.47 5.59,0 11.1,-2.58 14.63,-7.45 l 77.59,-106.84 126.91,167.43 c 3.55,4.69 8.96,7.16 14.43,7.16 3.8,0 7.64,-1.2 10.9,-3.68 7.96,-6.03 9.52,-18.46 3.48,-26.42 l -141.63,-185.9 c -3.42,-4.52 -8.75,-7.34 -14.41,-7.34"
         style="fill:#acc2e8;fill-opacity:1;fill-rule:nonzero;stroke:none"
         id="path398" /><path
         d="m 3121.84,3010.33 c -229.02,67.5 -262.17,427.51 -262.17,427.51 l 262.17,102.86 262.17,-102.86 c 0,0 -33.15,-360.01 -262.17,-427.51 m -113,337.48 c -3.68,0 -7.41,-1.13 -10.63,-3.47 -8.08,-5.86 -9.87,-17.21 -4.01,-25.29 l 91.91,-126.66 c 3.37,-4.62 8.73,-7.62 14.45,-7.62 h 0.18 c 5.66,0 10.99,2.82 14.41,7.34 l 141.63,185.9 c 6.04,7.96 4.48,20.39 -3.48,26.42 -3.26,2.48 -7.1,3.68 -10.9,3.68 -5.47,0 -10.88,-2.47 -14.43,-7.16 l -126.91,-167.43 -77.59,106.84 c -3.53,4.87 -9.04,7.45 -14.63,7.45"
         style="fill:#ffffff;fill-opacity:1;fill-rule:nonzero;stroke:none"
         id="path400" /><path
         d="m 3478.06,900.199 h 852.48 v 575.289 h -852.48 z"
         style="fill:#4870c0;fill-opacity:1;fill-rule:nonzero;stroke:none"
         id="path402" /><path
         d="m 4330.54,900.199 h -852.48 v 575.291 h 852.48 v -180.72 -54.68 -109.31 -181.51 -2.5 -14.668 -31.903"
         style="fill:#c7d9f2;fill-opacity:1;fill-rule:nonzero;stroke:none"
         id="path404" /><path
         d="m 4312.57,919.359 h -818.68 v 511.771 h 818.68 V 919.359"
         style="fill:#1d2a30;fill-opacity:1;fill-rule:nonzero;stroke:none"
         id="path406" /><path
         d="m 4204.49,1336.86 h -673.1 v 15 h 673.1 v -15"
         style="fill:#e3e3e1;fill-opacity:1;fill-rule:nonzero;stroke:none"
         id="path408" /><path
         d="m 4104.43,1294.36 h -573.04 v 15 h 573.04 v -15"
         style="fill:#e3e3e1;fill-opacity:1;fill-rule:nonzero;stroke:none"
         id="path410" /><path
         d="m 4204.49,1251.86 h -673.1 v 15 h 673.1 v -15"
         style="fill:#e3e3e1;fill-opacity:1;fill-rule:nonzero;stroke:none"
         id="path412" /><path
         d="m 4104.43,1209.36 h -573.04 v 15 h 573.04 v -15"
         style="fill:#e3e3e1;fill-opacity:1;fill-rule:nonzero;stroke:none"
         id="path414" /><path
         d="m 3604.11,1166.86 h -72.72 v 15 h 72.72 v -15"
         style="fill:#e3e3e1;fill-opacity:1;fill-rule:nonzero;stroke:none"
         id="path416" /><path
         d="m 3904.3,1124.36 h -372.91 v 15 h 372.91 v -15"
         style="fill:#e3e3e1;fill-opacity:1;fill-rule:nonzero;stroke:none"
         id="path418" /><path
         d="m 4104.43,1081.86 h -573.04 v 15 h 573.04 v -15"
         style="fill:#e3e3e1;fill-opacity:1;fill-rule:nonzero;stroke:none"
         id="path420" /><path
         d="m 3604.11,1039.36 h -72.72 v 15 h 72.72 v -15"
         style="fill:#e3e3e1;fill-opacity:1;fill-rule:nonzero;stroke:none"
         id="path422" /><path
         d="m 3604.11,996.859 h -72.72 v 15.001 h 72.72 v -15.001"
         style="fill:#e3e3e1;fill-opacity:1;fill-rule:nonzero;stroke:none"
         id="path424" /><path
         d="m 1019.82,2097.12 h 852.48 v 575.289 h -852.48 z"
         style="fill:#4870c0;fill-opacity:1;fill-rule:nonzero;stroke:none"
         id="path426" /><path
         d="m 1872.3,2097.12 h -852.48 v 575.29 h 852.48 v -131.97 -443.32"
         style="fill:#c7d9f2;fill-opacity:1;fill-rule:nonzero;stroke:none"
         id="path428" /><path
         d="m 1854.33,2116.28 h -818.68 v 511.77 h 818.68 v -511.77"
         style="fill:#1d2a30;fill-opacity:1;fill-rule:nonzero;stroke:none"
         id="path430" /><path
         d="m 1746.25,2533.78 h -673.1 v 15 h 673.1 v -15"
         style="fill:#e3e3e1;fill-opacity:1;fill-rule:nonzero;stroke:none"
         id="path432" /><path
         d="m 1646.19,2491.28 h -573.04 v 15 h 573.04 v -15"
         style="fill:#e3e3e1;fill-opacity:1;fill-rule:nonzero;stroke:none"
         id="path434" /><path
         d="m 1746.25,2448.78 h -673.1 v 15 h 673.1 v -15"
         style="fill:#e3e3e1;fill-opacity:1;fill-rule:nonzero;stroke:none"
         id="path436" /><path
         d="m 1646.19,2406.28 h -573.04 v 15 h 573.04 v -15"
         style="fill:#e3e3e1;fill-opacity:1;fill-rule:nonzero;stroke:none"
         id="path438" /><path
         d="m 1145.87,2363.78 h -72.72 v 15 h 72.72 v -15"
         style="fill:#e3e3e1;fill-opacity:1;fill-rule:nonzero;stroke:none"
         id="path440" /><path
         d="m 1446.06,2321.28 h -372.91 v 15 h 372.91 v -15"
         style="fill:#e3e3e1;fill-opacity:1;fill-rule:nonzero;stroke:none"
         id="path442" /><path
         d="m 1646.19,2278.78 h -573.04 v 15 h 573.04 v -15"
         style="fill:#e3e3e1;fill-opacity:1;fill-rule:nonzero;stroke:none"
         id="path444" /><path
         d="m 1145.87,2236.28 h -72.72 v 15 h 72.72 v -15"
         style="fill:#e3e3e1;fill-opacity:1;fill-rule:nonzero;stroke:none"
         id="path446" /><path
         d="m 1145.87,2193.78 h -72.72 v 15 h 72.72 v -15"
         style="fill:#e3e3e1;fill-opacity:1;fill-rule:nonzero;stroke:none"
         id="path448" /></g></g></svg>
